<?xml version="1.0" encoding="UTF-8" standalone="no"?>
<!-- Created with Inkscape (http://www.inkscape.org/) -->

<svg
   xmlns:dc="http://purl.org/dc/elements/1.1/"
   xmlns:cc="http://creativecommons.org/ns#"
   xmlns:rdf="http://www.w3.org/1999/02/22-rdf-syntax-ns#"
   xmlns:svg="http://www.w3.org/2000/svg"
   xmlns="http://www.w3.org/2000/svg"
   xmlns:xlink="http://www.w3.org/1999/xlink"
   xmlns:sodipodi="http://sodipodi.sourceforge.net/DTD/sodipodi-0.dtd"
   xmlns:inkscape="http://www.inkscape.org/namespaces/inkscape"
   width="700"
   height="100"
   id="svg3420"
   version="1.1"
   inkscape:version="0.48.1 r9760"
   sodipodi:docname="Zeichnung.svg">
  <defs
     id="defs3422" />
  <sodipodi:namedview
     id="base"
     pagecolor="#ffffff"
     bordercolor="#666666"
     borderopacity="1.0"
     inkscape:pageopacity="0.0"
     inkscape:pageshadow="2"
     inkscape:zoom="1.1289699"
     inkscape:cx="360"
     inkscape:cy="18.692268"
     inkscape:document-units="px"
     inkscape:current-layer="layer1"
     showgrid="false"
     units="px"
     inkscape:window-width="941"
     inkscape:window-height="754"
     inkscape:window-x="114"
     inkscape:window-y="166"
     inkscape:window-maximized="0" />
  <metadata
     id="metadata3425">
    <rdf:RDF>
      <cc:Work
         rdf:about="">
        <dc:format>image/svg+xml</dc:format>
        <dc:type
           rdf:resource="http://purl.org/dc/dcmitype/StillImage" />
        <dc:title />
      </cc:Work>
    </rdf:RDF>
  </metadata>
  <g
     id="layer1"
     inkscape:label="Layer 1"
     inkscape:groupmode="layer"
     transform="translate(0,10.000005)">
    <path
       sodipodi:type="star"
       style="fill:#ffff00;stroke:#0000ff"
       id="path3680"
       sodipodi:sides="5"
       sodipodi:cx="164.75195"
       sodipodi:cy="25.595892"
       sodipodi:r1="19.506911"
       sodipodi:r2="9.7534554"
       sodipodi:arg1="0.68892439"
       sodipodi:arg2="1.3172429"
       inkscape:flatsided="false"
       inkscape:rounded="0"
       inkscape:randomized="0"
       d="m 179.80993,37.996576 -12.61137,-2.959074 -9.58719,8.711396 -1.08288,-12.908525 -11.24763,-6.425991 11.94211,-5.018832 2.63577,-12.6828774 8.4635,9.8067164 12.87663,-1.412459 -6.71137,11.079716 z"
       transform="translate(0,-10.000005)"
       inkscape:transform-center-x="1.5120874"
       inkscape:transform-center-y="-0.3651065" />
    <path
       sodipodi:type="star"
       style="fill:#ffff00;stroke:#0000ff"
       id="path3682"
       sodipodi:sides="5"
       sodipodi:cx="251.55675"
       sodipodi:cy="56.597604"
       sodipodi:r1="8.7237557"
       sodipodi:r2="4.3618779"
       sodipodi:arg1="0.41822433"
       sodipodi:arg2="1.0465429"
       inkscape:flatsided="false"
       inkscape:rounded="0"
       inkscape:randomized="0"
       d="m 259.52862,60.140656 -5.78846,0.233015 -3.08961,4.900493 -2.01035,-5.433144 -5.61538,-1.42406 4.54599,-3.590884 -0.38089,-5.78061 4.81993,3.213856 5.37998,-2.148553 -1.56712,5.577156 z"
       transform="translate(0,-10.000005)"
       inkscape:transform-center-x="0.28003136"
       inkscape:transform-center-y="0.56221222" />
    <path
       sodipodi:type="star"
       style="fill:#ffff00;stroke:#0000ff"
       id="path3684"
       sodipodi:sides="5"
       sodipodi:cx="284.32998"
       sodipodi:cy="25.595892"
       sodipodi:r1="15.239246"
       sodipodi:r2="7.6196232"
       sodipodi:arg1="0.62024949"
       sodipodi:arg2="1.248568"
       inkscape:flatsided="false"
       inkscape:rounded="0"
       inkscape:randomized="0"
       d="m 296.73067,34.453524 -9.98769,-1.630175 -7.00508,7.303454 -1.53598,-10.002614 -9.11068,-4.405332 9.0384,-4.551781 1.37437,-10.026099 7.12202,7.189459 9.96009,-1.791137 -4.63676,8.99511 z"
       transform="translate(0,-10.000005)"
       inkscape:transform-center-x="1.4190327"
       inkscape:transform-center-y="0.037998221" />
    <path
       sodipodi:type="star"
       style="fill:#ffff00;stroke:#0000ff"
       id="path3686"
       sodipodi:sides="5"
       sodipodi:cx="343.67612"
       sodipodi:cy="62.797946"
       sodipodi:r1="19.161988"
       sodipodi:r2="9.5809941"
       sodipodi:arg1="0.5880026"
       sodipodi:arg2="1.2163211"
       inkscape:flatsided="false"
       inkscape:rounded="0"
       inkscape:randomized="0"
       d="m 359.61985,73.427105 -12.61819,-1.643827 -8.50759,9.462655 -2.33586,-12.508583 -11.62851,-5.167079 11.17455,-6.086903 1.32077,-12.656084 9.24212,8.74667 12.44479,-2.654812 -5.4626,11.492643 z"
       transform="translate(0,-10.000005)"
       inkscape:transform-center-x="1.6013398"
       inkscape:transform-center-y="0.23866125" />
    <path
       sodipodi:type="star"
       style="fill:#ff2a2a;stroke:#0000ff"
       id="path3688"
       sodipodi:sides="5"
       sodipodi:cx="433.1382"
       sodipodi:cy="56.597604"
       sodipodi:r1="8.4030875"
       sodipodi:r2="4.2015438"
       sodipodi:arg1="2.8198421"
       sodipodi:arg2="3.4481606"
       inkscape:flatsided="false"
       inkscape:rounded="0"
       inkscape:randomized="0"
       d="m 425.16635,59.254892 3.96622,-3.925266 -0.98503,-5.492573 4.95878,2.559127 4.91936,-2.634117 -0.90153,5.506895 4.02536,3.864599 -5.51596,0.844321 -2.43155,5.02257 -2.50752,-4.985075 z"
       transform="translate(0,-10.000005)"
       inkscape:transform-center-x="-0.019712087"
       inkscape:transform-center-y="0.78365302" />
    <path
       sodipodi:type="star"
       style="fill:#ff2a2a;stroke:#0000ff"
       id="path3690"
       sodipodi:sides="5"
       sodipodi:cx="286.1015"
       sodipodi:cy="53.940315"
       sodipodi:r1="10.099254"
       sodipodi:r2="5.0496273"
       sodipodi:arg1="0.66104317"
       sodipodi:arg2="1.2893617"
       inkscape:flatsided="false"
       inkscape:rounded="0"
       inkscape:randomized="0"
       d="m 294.07337,60.140657 -6.56941,-1.349377 -4.83589,4.646744 -0.74673,-6.664865 -5.91369,-3.163279 6.10792,-2.769736 1.18102,-6.601757 4.52163,4.953074 6.6436,-0.916832 -3.31339,5.830904 z"
       transform="translate(-159.43737,-46.316296)"
       inkscape:transform-center-x="0.86676408"
       inkscape:transform-center-y="-0.10211017" />
    <path
       sodipodi:type="star"
       style="fill:#ff2a2a;stroke:#0000ff"
       id="path3692"
       sodipodi:sides="5"
       sodipodi:cx="283.44421"
       sodipodi:cy="51.283024"
       sodipodi:r1="22.425734"
       sodipodi:r2="3.6520953"
       sodipodi:arg1="1.4121411"
       sodipodi:arg2="2.0404596"
       inkscape:flatsided="false"
       inkscape:rounded="0"
       inkscape:randomized="0"
       d="m 286.98727,73.427104 -5.19594,-18.887431 -18.31253,6.955891 16.35739,-10.77817 -12.27433,-15.266754 15.30536,12.226157 10.72657,-16.391265 -6.89815,18.33435 18.90371,5.136396 -19.56865,-0.894905 z"
       transform="translate(-85.91903,3.2864429)"
       inkscape:transform-center-x="-0.54743176"
       inkscape:transform-center-y="0.15602433" />
    <path
       sodipodi:type="star"
       style="fill:#ff2a2a;stroke:#0000ff"
       id="path3694"
       sodipodi:sides="5"
       sodipodi:cx="383.53546"
       sodipodi:cy="53.054551"
       sodipodi:r1="17.913452"
       sodipodi:r2="2.9172573"
       sodipodi:arg1="1.7196863"
       sodipodi:arg2="2.3480048"
       inkscape:flatsided="false"
       inkscape:rounded="0"
       inkscape:randomized="0"
       d="m 380.87817,70.769814 0.61144,-15.635627 -15.62351,0.867448 15.05931,-4.25016 -5.65293,-14.59079 8.69573,13.008883 12.12982,-9.885052 -9.68506,12.290093 13.14956,8.481492 -14.68142,-5.413189 z"
       transform="translate(0,-10.000005)"
       inkscape:transform-center-x="0.82114764"
       inkscape:transform-center-y="0.91069936" />
    <path
       sodipodi:type="star"
       style="fill:#ddff55;stroke:#0000ff"
       id="path3696"
       sodipodi:sides="5"
       sodipodi:cx="107.17735"
       sodipodi:cy="68.112525"
       sodipodi:r1="13.286448"
       sodipodi:r2="2.1637363"
       sodipodi:arg1="0.92729522"
       sodipodi:arg2="1.5556137"
       inkscape:flatsided="false"
       inkscape:rounded="0"
       inkscape:randomized="0"
       d="m 115.14922,78.741684 -7.93902,-8.465671 -7.678334,8.702801 5.598044,-10.166492 -10.649597,-4.613219 11.398797,2.182434 1.09653,-11.553927 1.4468,11.51531 11.32729,-2.527501 -10.50463,4.934419 z"
       transform="translate(0,-10.000005)"
       inkscape:transform-center-x="0.062333296"
       inkscape:transform-center-y="-1.2093142" />
    <path
       sodipodi:type="star"
       style="fill:#ddff55;stroke:#0000ff"
       id="path3698"
       sodipodi:sides="5"
       sodipodi:cx="434.90973"
       sodipodi:cy="79.627447"
       sodipodi:r1="7.3041904"
       sodipodi:r2="1.1895084"
       sodipodi:arg1="1.815775"
       sodipodi:arg2="2.4440935"
       inkscape:flatsided="false"
       inkscape:rounded="0"
       inkscape:randomized="0"
       d="m 433.1382,86.713555 0.85983,-6.322081 -6.37502,-0.25912 6.27836,-1.135886 -1.72355,-6.143076 3.02041,5.620064 5.3098,-3.53751 -4.41164,4.609278 5.00519,3.956774 -5.74695,-2.771374 z"
       transform="translate(0,-10.000005)"
       inkscape:transform-center-x="0.54743176"
       inkscape:transform-center-y="0.15602433" />
    <path
       sodipodi:type="star"
       style="fill:#ddff55;stroke:#0000ff"
       id="path3700"
       sodipodi:sides="5"
       sodipodi:cx="407.45107"
       sodipodi:cy="14.966734"
       sodipodi:r1="7.1412512"
       sodipodi:r2="1.1629733"
       sodipodi:arg1="1.4464413"
       sodipodi:arg2="2.0747599"
       inkscape:flatsided="false"
       inkscape:rounded="0"
       inkscape:randomized="0"
       d="m 408.33684,22.052839 -1.44736,-6.067718 -5.90397,2.013751 5.32348,-3.251552 -3.73962,-4.9927271 4.73746,4.0581481 3.59276,-5.0994255 -2.39557,5.7596265 5.96006,1.841108 -6.218,-0.498504 z"
       transform="translate(0,-10.000005)"
       inkscape:transform-center-x="-0.27371588"
       inkscape:transform-center-y="0.4163436" />
    <path
       sodipodi:type="star"
       style="fill:#d35fbc;stroke:#0000ff"
       id="path3761"
       sodipodi:sides="5"
       sodipodi:cx="465.91144"
       sodipodi:cy="30.024708"
       sodipodi:r1="3.1936646"
       sodipodi:r2="1.5968323"
       sodipodi:arg1="2.1587989"
       sodipodi:arg2="2.7871175"
       inkscape:flatsided="false"
       inkscape:rounded="0"
       inkscape:randomized="0"
       d="m 464.13991,32.681997 0.27397,-2.103032 -1.57711,-1.417931 2.08477,-0.389311 0.86118,-1.938085 1.01448,1.862425 2.10935,0.220129 -1.45778,1.540353 0.44247,2.074132 -1.91544,-0.910434 z"
       transform="translate(0,-10.000005)"
       inkscape:transform-center-x="0.039776876"
       inkscape:transform-center-y="-0.26688997" />
    <path
       inkscape:transform-center-y="-0.26688997"
       inkscape:transform-center-x="0.039776876"
       transform="translate(0,-10.000005)"
       d="m 464.13991,32.681997 0.27397,-2.103032 -1.57711,-1.417931 2.08477,-0.389311 0.86118,-1.938085 1.01448,1.862425 2.10935,0.220129 -1.45778,1.540353 0.44247,2.074132 -1.91544,-0.910434 z"
       inkscape:randomized="0"
       inkscape:rounded="0"
       inkscape:flatsided="false"
       sodipodi:arg2="2.7871175"
       sodipodi:arg1="2.1587989"
       sodipodi:r2="1.5968323"
       sodipodi:r1="3.1936646"
       sodipodi:cy="30.024708"
       sodipodi:cx="465.91144"
       sodipodi:sides="5"
       id="path3763"
       style="fill:#ddff55;stroke:#0000ff"
       sodipodi:type="star" />
    <path
       inkscape:transform-center-y="-0.26688997"
       inkscape:transform-center-x="0.039776876"
       transform="translate(0,-10.000005)"
       d="m 464.13991,32.681997 0.27397,-2.103032 -1.57711,-1.417931 2.08477,-0.389311 0.86118,-1.938085 1.01448,1.862425 2.10935,0.220129 -1.45778,1.540353 0.44247,2.074132 -1.91544,-0.910434 z"
       inkscape:randomized="0"
       inkscape:rounded="0"
       inkscape:flatsided="false"
       sodipodi:arg2="2.7871175"
       sodipodi:arg1="2.1587989"
       sodipodi:r2="1.5968323"
       sodipodi:r1="3.1936646"
       sodipodi:cy="30.024708"
       sodipodi:cx="465.91144"
       sodipodi:sides="5"
       id="path3765"
       style="fill:#ddff55;stroke:#0000ff"
       sodipodi:type="star" />
    <path
       inkscape:transform-center-y="-0.26688997"
       inkscape:transform-center-x="0.039776876"
       transform="translate(0,-10.000005)"
       d="m 464.13991,32.681997 0.27397,-2.103032 -1.57711,-1.417931 2.08477,-0.389311 0.86118,-1.938085 1.01448,1.862425 2.10935,0.220129 -1.45778,1.540353 0.44247,2.074132 -1.91544,-0.910434 z"
       inkscape:randomized="0"
       inkscape:rounded="0"
       inkscape:flatsided="false"
       sodipodi:arg2="2.7871175"
       sodipodi:arg1="2.1587989"
       sodipodi:r2="1.5968323"
       sodipodi:r1="3.1936646"
       sodipodi:cy="30.024708"
       sodipodi:cx="465.91144"
       sodipodi:sides="5"
       id="path3767"
       style="fill:#ddff55;stroke:#0000ff"
       sodipodi:type="star" />
    <path
       inkscape:transform-center-y="-0.26688997"
       inkscape:transform-center-x="0.039776876"
       transform="translate(0,-10.000005)"
       d="m 464.13991,32.681997 0.27397,-2.103032 -1.57711,-1.417931 2.08477,-0.389311 0.86118,-1.938085 1.01448,1.862425 2.10935,0.220129 -1.45778,1.540353 0.44247,2.074132 -1.91544,-0.910434 z"
       inkscape:randomized="0"
       inkscape:rounded="0"
       inkscape:flatsided="false"
       sodipodi:arg2="2.7871175"
       sodipodi:arg1="2.1587989"
       sodipodi:r2="1.5968323"
       sodipodi:r1="3.1936646"
       sodipodi:cy="30.024708"
       sodipodi:cx="465.91144"
       sodipodi:sides="5"
       id="path3769"
       style="fill:#ddff55;stroke:#0000ff"
       sodipodi:type="star" />
    <path
       inkscape:transform-center-y="-0.26688997"
       inkscape:transform-center-x="0.039776876"
       transform="translate(0,-10.000005)"
       d="m 464.13991,32.681997 0.27397,-2.103032 -1.57711,-1.417931 2.08477,-0.389311 0.86118,-1.938085 1.01448,1.862425 2.10935,0.220129 -1.45778,1.540353 0.44247,2.074132 -1.91544,-0.910434 z"
       inkscape:randomized="0"
       inkscape:rounded="0"
       inkscape:flatsided="false"
       sodipodi:arg2="2.7871175"
       sodipodi:arg1="2.1587989"
       sodipodi:r2="1.5968323"
       sodipodi:r1="3.1936646"
       sodipodi:cy="30.024708"
       sodipodi:cx="465.91144"
       sodipodi:sides="5"
       id="path3771"
       style="fill:#ddff55;stroke:#0000ff"
       sodipodi:type="star" />
    <path
       inkscape:transform-center-y="-0.26688997"
       inkscape:transform-center-x="0.039776876"
       transform="translate(0,-10.000005)"
       d="m 464.13991,32.681997 0.27397,-2.103032 -1.57711,-1.417931 2.08477,-0.389311 0.86118,-1.938085 1.01448,1.862425 2.10935,0.220129 -1.45778,1.540353 0.44247,2.074132 -1.91544,-0.910434 z"
       inkscape:randomized="0"
       inkscape:rounded="0"
       inkscape:flatsided="false"
       sodipodi:arg2="2.7871175"
       sodipodi:arg1="2.1587989"
       sodipodi:r2="1.5968323"
       sodipodi:r1="3.1936646"
       sodipodi:cy="30.024708"
       sodipodi:cx="465.91144"
       sodipodi:sides="5"
       id="path3773"
       style="fill:#ddff55;stroke:#0000ff"
       sodipodi:type="star" />
    <path
       style="fill:#d35fbc;stroke:#0000ff"
       d="M 118.4375 -0.6875 L 117.5625 1.25 L 115.46875 1.625 L 117.0625 3.03125 L 116.78125 5.15625 L 118.625 4.09375 L 120.53125 5 L 120.09375 2.90625 L 121.53125 1.375 L 119.4375 1.15625 L 118.4375 -0.6875 z M 322.28125 9.875 L 321.40625 11.8125 L 319.34375 12.1875 L 320.90625 13.625 L 320.625 15.71875 L 322.46875 14.65625 L 324.40625 15.5625 L 323.9375 13.5 L 325.40625 11.9375 L 323.3125 11.71875 L 322.28125 9.875 z M 110.1875 15.125 L 109.34375 17.0625 L 107.25 17.46875 L 108.84375 18.875 L 108.5625 20.96875 L 110.40625 19.9375 L 112.3125 20.84375 L 111.875 18.75 L 113.3125 17.21875 L 111.21875 17 L 110.1875 15.125 z M 367.25 20.3125 L 366.375 22.25 L 364.3125 22.65625 L 365.875 24.0625 L 365.59375 26.15625 L 367.4375 25.09375 L 369.34375 26 L 368.90625 23.9375 L 370.375 22.40625 L 368.25 22.1875 L 367.25 20.3125 z M 465.78125 26.84375 L 464.90625 28.78125 L 462.84375 29.15625 L 464.40625 30.59375 L 464.125 32.6875 L 465.96875 31.625 L 467.90625 32.53125 L 467.4375 30.46875 L 468.90625 28.90625 L 466.8125 28.6875 L 465.78125 26.84375 z M 240.75 32.625 L 239.90625 34.5625 L 237.8125 34.9375 L 239.375 36.34375 L 239.125 38.46875 L 240.9375 37.40625 L 242.875 38.3125 L 242.40625 36.21875 L 243.875 34.6875 L 241.78125 34.46875 L 240.75 32.625 z M 350.03125 33.34375 L 349.15625 35.28125 L 347.09375 35.65625 L 348.65625 37.09375 L 348.375 39.1875 L 350.21875 38.125 L 352.125 39.03125 L 351.6875 36.96875 L 353.15625 35.40625 L 351.03125 35.1875 L 350.03125 33.34375 z M 221.03125 38.65625 L 220.15625 40.59375 L 218.0625 41 L 219.65625 42.40625 L 219.375 44.5 L 221.21875 43.4375 L 223.125 44.375 L 222.6875 42.28125 L 224.15625 40.75 L 222.03125 40.53125 L 221.03125 38.65625 z M 297.375 40.78125 L 296.5 42.71875 L 294.4375 43.125 L 296 44.53125 L 295.71875 46.625 L 297.5625 45.5625 L 299.46875 46.5 L 299.03125 44.40625 L 300.5 42.875 L 298.375 42.65625 L 297.375 40.78125 z M 316.375 41.65625 L 315.5 43.59375 L 313.40625 43.96875 L 315 45.40625 L 314.71875 47.5 L 316.5625 46.4375 L 318.46875 47.34375 L 318.03125 45.28125 L 319.5 43.71875 L 317.375 43.5 L 316.375 41.65625 z M 67.46875 42.9375 L 66.625 44.875 L 65.375 45.09375 L 65.1875 44.71875 L 64.96875 45.15625 L 64.53125 45.25 L 64.8125 45.53125 L 64.3125 46.65625 L 62.25 47.0625 L 63.8125 48.46875 L 63.53125 50.5625 L 65.375 49.5 L 67.28125 50.4375 L 66.84375 48.34375 L 67.15625 48 L 67.65625 47.71875 L 69.59375 48.625 L 69.125 46.5625 L 70.59375 45.03125 L 68.5 44.8125 L 67.46875 42.9375 z M 58.15625 49.75 L 57.3125 51.6875 L 55.21875 52.0625 L 56.8125 53.46875 L 56.65625 54.6875 L 56.3125 54.75 L 56.59375 55.03125 L 56.53125 55.59375 L 56.96875 55.34375 L 57.875 56.15625 L 57.59375 58.25 L 59.4375 57.1875 L 61.34375 58.125 L 60.90625 56.03125 L 62.375 54.5 L 60.25 54.28125 L 59.90625 53.625 L 59.84375 53.375 L 61.28125 51.8125 L 59.1875 51.59375 L 58.15625 49.75 z M 343.84375 51.71875 L 343 53.65625 L 340.90625 54.0625 L 342.46875 55.46875 L 342.1875 57.5625 L 344.03125 56.5 L 345.96875 57.4375 L 345.5 55.34375 L 346.96875 53.8125 L 344.875 53.59375 L 343.84375 51.71875 z M 311.6875 53.59375 L 310.8125 55.53125 L 308.75 55.90625 L 310.3125 57.34375 L 310.03125 59.4375 L 311.875 58.375 L 313.78125 59.28125 L 313.34375 57.21875 L 314.8125 55.65625 L 312.6875 55.4375 L 311.6875 53.59375 z M 307.9375 58.28125 L 307.0625 60.21875 L 304.96875 60.625 L 306.5625 62.03125 L 306.28125 64.15625 L 308.125 63.09375 L 310.03125 64 L 309.59375 61.90625 L 311.0625 60.375 L 308.9375 60.15625 L 307.9375 58.28125 z M 346.96875 63.96875 L 346.09375 65.90625 L 344.03125 66.28125 L 345.59375 67.71875 L 345.3125 69.8125 L 347.15625 68.75 L 349.0625 69.65625 L 348.625 67.59375 L 350.09375 66.03125 L 347.96875 65.8125 L 346.96875 63.96875 z M 64.625 67.84375 L 63.75 69.78125 L 61.6875 70.1875 L 63.25 71.59375 L 62.96875 73.6875 L 64.8125 72.625 L 66.71875 73.5625 L 66.28125 71.46875 L 67.75 69.9375 L 65.625 69.71875 L 64.625 67.84375 z M 160.5 75.8125 L 159.625 77.75 L 157.5625 78.15625 L 159.125 79.5625 L 158.84375 81.6875 L 160.6875 80.625 L 162.59375 81.53125 L 162.15625 79.4375 L 163.625 77.90625 L 161.5 77.6875 L 160.5 75.8125 z M 278.46875 78.03125 L 277.59375 79.96875 L 275.53125 80.375 L 277.09375 81.78125 L 276.8125 83.875 L 278.65625 82.8125 L 280.5625 83.75 L 280.125 81.65625 L 281.59375 80.125 L 279.46875 79.90625 L 278.46875 78.03125 z M 337.625 84.71875 L 336.75 86.65625 L 334.65625 87.03125 L 336.25 88.46875 L 335.96875 90.5625 L 337.8125 89.5 L 339.71875 90.40625 L 339.28125 88.34375 L 340.71875 86.8125 L 338.625 86.59375 L 337.625 84.71875 z "
       transform="translate(0,-10.000005)"
       id="path3775" />
    <path
       sodipodi:type="star"
       style="fill:#ffdd55;stroke:#0000ff"
       id="path3860"
       sodipodi:sides="5"
       sodipodi:cx="58.460371"
       sodipodi:cy="16.73826"
       sodipodi:r1="4.7699808"
       sodipodi:r2="2.3849904"
       sodipodi:arg1="-0.38050638"
       sodipodi:arg2="0.24781215"
       inkscape:flatsided="false"
       inkscape:rounded="0"
       inkscape:randomized="0"
       d="m 62.889185,14.966734 -2.116684,2.356525 0.741269,3.079624 -2.89528,-1.28488 -2.699831,1.656645 0.327302,-3.150625 -2.409856,-2.055761 3.097564,-0.662313 1.210458,-2.927175 1.587097,2.741292 z"
       transform="translate(0,-10.000005)"
       inkscape:transform-center-x="0.09772425"
       inkscape:transform-center-y="-0.36154919" />
    <path
       inkscape:transform-center-y="-0.36154919"
       inkscape:transform-center-x="0.09772425"
       transform="translate(0,-10.000005)"
       d="m 62.889185,14.966734 -2.116684,2.356525 0.741269,3.079624 -2.89528,-1.28488 -2.699831,1.656645 0.327302,-3.150625 -2.409856,-2.055761 3.097564,-0.662313 1.210458,-2.927175 1.587097,2.741292 z"
       inkscape:randomized="0"
       inkscape:rounded="0"
       inkscape:flatsided="false"
       sodipodi:arg2="0.24781215"
       sodipodi:arg1="-0.38050638"
       sodipodi:r2="2.3849904"
       sodipodi:r1="4.7699808"
       sodipodi:cy="16.73826"
       sodipodi:cx="58.460371"
       sodipodi:sides="5"
       id="path3862"
       style="fill:#d400aa;stroke:#0000ff"
       sodipodi:type="star" />
    <path
       sodipodi:type="star"
       style="fill:#ffdd55;stroke:#0000ff"
       id="path3917"
       sodipodi:sides="5"
       sodipodi:cx="521.71452"
       sodipodi:cy="41.539629"
       sodipodi:r1="7.1412512"
       sodipodi:r2="3.5706256"
       sodipodi:arg1="-1.0516502"
       sodipodi:arg2="-0.42333168"
       inkscape:flatsided="false"
       inkscape:rounded="0"
       inkscape:randomized="0"
       d="m 525.25759,35.339289 -0.28762,4.733528 3.73631,2.920446 -4.59074,1.189195 -1.62292,4.455909 -2.54961,-3.998565 -4.73933,-0.166543 3.01499,-3.660444 -1.30614,-4.558839 4.41297,1.736287 z"
       transform="translate(0,-10.000005)"
       inkscape:transform-center-x="-0.24043991"
       inkscape:transform-center-y="0.44919707" />
    <path
       sodipodi:type="star"
       style="fill:#ffdd55;stroke:#0000ff"
       id="path3919"
       sodipodi:sides="5"
       sodipodi:cx="519.94299"
       sodipodi:cy="45.968445"
       sodipodi:r1="3.9612534"
       sodipodi:r2="1.9806267"
       sodipodi:arg1="-2.0344439"
       sodipodi:arg2="-1.4061254"
       inkscape:flatsided="false"
       inkscape:rounded="0"
       inkscape:randomized="0"
       d="m 518.17147,42.425392 2.0962,1.589219 2.49753,-0.825851 -0.86367,2.484706 1.55721,2.120092 -2.62998,-0.05359 -1.53513,2.136141 -0.76174,-2.517825 -2.50597,-0.799884 2.1592,-1.502515 z"
       transform="translate(0,-10.000005)"
       inkscape:transform-center-x="0.20066303"
       inkscape:transform-center-y="0.18230711" />
    <path
       inkscape:transform-center-y="0.18230711"
       inkscape:transform-center-x="0.20066303"
       transform="translate(0,-10.000005)"
       d="m 518.17147,42.425392 2.0962,1.589219 2.49753,-0.825851 -0.86367,2.484706 1.55721,2.120092 -2.62998,-0.05359 -1.53513,2.136141 -0.76174,-2.517825 -2.50597,-0.799884 2.1592,-1.502515 z"
       inkscape:randomized="0"
       inkscape:rounded="0"
       inkscape:flatsided="false"
       sodipodi:arg2="-1.4061254"
       sodipodi:arg1="-2.0344439"
       sodipodi:r2="1.9806267"
       sodipodi:r1="3.9612534"
       sodipodi:cy="45.968445"
       sodipodi:cx="519.94299"
       sodipodi:sides="5"
       id="path3921"
       style="fill:#ffdd55;stroke:#0000ff"
       sodipodi:type="star" />
    <path
       inkscape:transform-center-y="0.18230711"
       inkscape:transform-center-x="0.20066303"
       transform="translate(0,-10.000005)"
       d="m 518.17147,42.425392 2.0962,1.589219 2.49753,-0.825851 -0.86367,2.484706 1.55721,2.120092 -2.62998,-0.05359 -1.53513,2.136141 -0.76174,-2.517825 -2.50597,-0.799884 2.1592,-1.502515 z"
       inkscape:randomized="0"
       inkscape:rounded="0"
       inkscape:flatsided="false"
       sodipodi:arg2="-1.4061254"
       sodipodi:arg1="-2.0344439"
       sodipodi:r2="1.9806267"
       sodipodi:r1="3.9612534"
       sodipodi:cy="45.968445"
       sodipodi:cx="519.94299"
       sodipodi:sides="5"
       id="path3923"
       style="fill:#ffdd55;stroke:#0000ff"
       sodipodi:type="star" />
    <path
       inkscape:transform-center-y="0.18230711"
       inkscape:transform-center-x="0.20066303"
       transform="translate(0,-10.000005)"
       d="m 518.17147,42.425392 2.0962,1.589219 2.49753,-0.825851 -0.86367,2.484706 1.55721,2.120092 -2.62998,-0.05359 -1.53513,2.136141 -0.76174,-2.517825 -2.50597,-0.799884 2.1592,-1.502515 z"
       inkscape:randomized="0"
       inkscape:rounded="0"
       inkscape:flatsided="false"
       sodipodi:arg2="-1.4061254"
       sodipodi:arg1="-2.0344439"
       sodipodi:r2="1.9806267"
       sodipodi:r1="3.9612534"
       sodipodi:cy="45.968445"
       sodipodi:cx="519.94299"
       sodipodi:sides="5"
       id="path3925"
       style="fill:#ffdd55;stroke:#0000ff"
       sodipodi:type="star" />
    <path
       inkscape:transform-center-y="0.18230711"
       inkscape:transform-center-x="0.20066303"
       transform="translate(0,-10.000005)"
       d="m 518.17147,42.425392 2.0962,1.589219 2.49753,-0.825851 -0.86367,2.484706 1.55721,2.120092 -2.62998,-0.05359 -1.53513,2.136141 -0.76174,-2.517825 -2.50597,-0.799884 2.1592,-1.502515 z"
       inkscape:randomized="0"
       inkscape:rounded="0"
       inkscape:flatsided="false"
       sodipodi:arg2="-1.4061254"
       sodipodi:arg1="-2.0344439"
       sodipodi:r2="1.9806267"
       sodipodi:r1="3.9612534"
       sodipodi:cy="45.968445"
       sodipodi:cx="519.94299"
       sodipodi:sides="5"
       id="path3927"
       style="fill:#ffdd55;stroke:#0000ff"
       sodipodi:type="star" />
    <path
       inkscape:transform-center-y="0.18230711"
       inkscape:transform-center-x="0.20066303"
       transform="translate(0,-10.000005)"
       d="m 518.17147,42.425392 2.0962,1.589219 2.49753,-0.825851 -0.86367,2.484706 1.55721,2.120092 -2.62998,-0.05359 -1.53513,2.136141 -0.76174,-2.517825 -2.50597,-0.799884 2.1592,-1.502515 z"
       inkscape:randomized="0"
       inkscape:rounded="0"
       inkscape:flatsided="false"
       sodipodi:arg2="-1.4061254"
       sodipodi:arg1="-2.0344439"
       sodipodi:r2="1.9806267"
       sodipodi:r1="3.9612534"
       sodipodi:cy="45.968445"
       sodipodi:cx="519.94299"
       sodipodi:sides="5"
       id="path3929"
       style="fill:#ffdd55;stroke:#0000ff"
       sodipodi:type="star" />
    <path
       inkscape:transform-center-y="0.18230711"
       inkscape:transform-center-x="0.20066303"
       transform="translate(0,-10.000005)"
       d="m 518.17147,42.425392 2.0962,1.589219 2.49753,-0.825851 -0.86367,2.484706 1.55721,2.120092 -2.62998,-0.05359 -1.53513,2.136141 -0.76174,-2.517825 -2.50597,-0.799884 2.1592,-1.502515 z"
       inkscape:randomized="0"
       inkscape:rounded="0"
       inkscape:flatsided="false"
       sodipodi:arg2="-1.4061254"
       sodipodi:arg1="-2.0344439"
       sodipodi:r2="1.9806267"
       sodipodi:r1="3.9612534"
       sodipodi:cy="45.968445"
       sodipodi:cx="519.94299"
       sodipodi:sides="5"
       id="path3931"
       style="fill:#ffdd55;stroke:#0000ff"
       sodipodi:type="star" />
    <path
       inkscape:transform-center-y="0.18230711"
       inkscape:transform-center-x="0.20066303"
       transform="translate(0,-10.000005)"
       d="m 518.17147,42.425392 2.0962,1.589219 2.49753,-0.825851 -0.86367,2.484706 1.55721,2.120092 -2.62998,-0.05359 -1.53513,2.136141 -0.76174,-2.517825 -2.50597,-0.799884 2.1592,-1.502515 z"
       inkscape:randomized="0"
       inkscape:rounded="0"
       inkscape:flatsided="false"
       sodipodi:arg2="-1.4061254"
       sodipodi:arg1="-2.0344439"
       sodipodi:r2="1.9806267"
       sodipodi:r1="3.9612534"
       sodipodi:cy="45.968445"
       sodipodi:cx="519.94299"
       sodipodi:sides="5"
       id="path3933"
       style="fill:#ffdd55;stroke:#0000ff"
       sodipodi:type="star" />
    <use
       id="use3979"
       xlink:href="#path3919"
       x="0"
       y="0"
       width="700"
       height="100"
       transform="translate(-496.00099,-12.278685)" />
    <use
       id="use3981"
       xlink:href="#path3919"
       x="0"
       y="0"
       width="700"
       height="100"
       transform="translate(-476.21904,-27.206436)" />
    <use
       id="use3985"
       xlink:href="#path3919"
       x="0"
       y="0"
       width="700"
       height="100"
       transform="translate(-461.03664,-17.080698)" />
    <path
       id="use3989"
       d="m 181.30382,-2.3226527 0,2.625 -2.15625,1.5 2.5,0.8125 0.78125,2.5 1.53125,-2.125 2.625,0.0625 -1.5625,-2.125 0.875,-2.5 -2.5,0.84375 -2.09375,-1.59375 z m -94.03125,0.96875 0,2.625 -2.15625,1.5 2.5,0.8125 0.78125,2.5 1.53125,-2.125 2.625,0.03125 -1.5625,-2.09375 0.875,-2.5 -2.5,0.84375 -2.09375,-1.59375 z m -167.375,5.71875 0,2.625 -2.15625,1.5 2.5,0.8125 0.75,2.4374997 -1,0.6875 2.53125,0.8125 0.75,2.5 1.53125,-2.125 2.625,0.0625 -1.5625,-2.125 0.875,-2.4999997 -1.65625,0.5625 -1.46875,-2 0.875,-2.5 -2.5,0.84375 -2.09375,-1.59375 z m 171.15625,1.15625 0,2.625 -2.15625,1.53125 2.53125,0.7812497 0.75,2.53125 1.53125,-2.15625 2.625,0.0625 -1.5625,-2.1249997 0.875,-2.46875 -2.5,0.8125 -2.09375,-1.59375 z m -167.0625,4.1875 0.75,0.03125 -0.5,0.15625 -0.25,-0.1875 z m -1.84375,0.5312497 0,0.6875 -1,0.6875 1,-1.375 z m 176.1875,5.0625 0.0312,2.625 -2.15625,1.5 2.5,0.8125 0.75,2.5 1.53125,-2.125 2.65625,0.0625 -1.5625,-2.125 0.84375,-2.5 -2.5,0.84375 -2.09375,-1.59375 z m -15.59375,6.6875 0,2.625 -2.15625,1.5 2.5,0.8125 0.78125,2.5 1.53125,-2.125 2.625,0.0625 -1.5625,-2.125 0.875,-2.5 -2.5,0.84375 -2.09375,-1.59375 z m 138.34375,5.5625 0.0312,2.625 -2.15625,1.5 2.5,0.78125 0.75,2.53125 1.5625,-2.125 2.625,0.03125 -1.5625,-2.09375 0.84375,-2.5 -2.46875,0.8125 -2.125,-1.5625 z m -34.9375,5.4375 0.0312,2.625 -2.1875,1.5 2.53125,0.8125 0.75,2.5 1.53125,-2.125 2.625,0.0625 -1.5625,-2.125 0.875,-2.5 -2.5,0.84375 -2.09375,-1.59375 z m -263.34375,1.03125 0,2.65625 -2.15625,1.5 2.5,0.78125 0.78125,2.53125 1.53125,-2.125 2.625,0.03125 -1.5625,-2.125 0.875,-2.46875 -2.5,0.8125 -2.09375,-1.59375 z m -11.875,0.65625 0,2.625 -2.15625,1.5 2.53125,0.8125 0.75,2.5 1.53125,-2.125 2.625,0.0625 -1.5625,-2.125 0.875,-2.5 -2.5,0.84375 -2.09375,-1.59375 z m 18.40625,8.78125 0.0312,2.625 -2.15625,1.5 2.5,0.8125 0.75,2.5 1.53125,-2.125 2.625,0.0625 -1.53125,-2.125 0.84375,-2.5 -2.5,0.84375 -2.09375,-1.59375 z m 168.84375,9.8125 0.0312,2.65625 -2.15625,1.5 2.5,0.78125 0.40625,1.40625 -0.46875,0.15625 -2.09375,-1.59375 0,2.625 -2.15625,1.5 2.5,0.8125 0.75,2.5 1.5625,-2.125 2.625,0.0625 -1.5625,-2.125 0.875,-2.5 -0.53125,0.1875 0.375,-0.53125 2.65625,0.0625 -1.5625,-2.125 0.84375,-2.46875 -2.5,0.8125 -2.09375,-1.59375 z m 86.21875,4.5 0.0312,2.625 -2.15625,1.5 2.5,0.8125 0.75,2.5 1.5625,-2.125 2.625,0.0625 -1.5625,-2.125 0.84375,-2.5 -2.46875,0.84375 -2.125,-1.59375 z"
       style="fill:#ffdd55;stroke:#0000ff"
       inkscape:connector-curvature="0" />
    <path
       id="use3991"
       d="m 183.00059,-2.0037009 0,2.625 -2.15625,1.5 2.5,0.8125 0.78125,2.5 1.53125,-2.125 2.625,0.0625 -1.5625,-2.125 0.875,-2.5 -2.5,0.84375 -2.09375,-1.59375 z m -94.03125,0.96875 0,2.625 -2.15625,1.5 2.5,0.8125 0.78125,2.5 1.53125,-2.125 2.625,0.03125 -1.5625,-2.09375 0.875,-2.5 -2.5,0.84375 -2.09375,-1.59375 z m -167.375,5.71875 0,2.625 -2.15625,1.5 2.5,0.8125 0.75,2.4374999 -1,0.6875 2.53125,0.8125 0.75,2.5 1.53125,-2.125 2.625,0.0625 -1.5625,-2.125 0.875,-2.4999999 -1.65625,0.5625 -1.46875,-2 0.875,-2.5 -2.5,0.84375 -2.09375,-1.59375 z m 171.15625,1.15625 0,2.625 -2.15625,1.53125 2.53125,0.7812499 0.75,2.53125 1.53125,-2.15625 2.625,0.0625 -1.5625,-2.1249999 0.875,-2.46875 -2.5,0.8125 -2.09375,-1.59375 z m -167.0625,4.1874999 0.75,0.03125 -0.5,0.15625 -0.25,-0.1875 z m -1.84375,0.53125 0,0.6875 -1,0.6875 1,-1.375 z m 176.1875,5.0625 0.0312,2.625 -2.15625,1.5 2.5,0.8125 0.75,2.5 1.53125,-2.125 2.65625,0.0625 -1.5625,-2.125 0.84375,-2.5 -2.5,0.84375 -2.09375,-1.59375 z m -15.59375,6.6875 0,2.625 -2.15625,1.5 2.5,0.8125 0.78125,2.5 1.53125,-2.125 2.625,0.0625 -1.5625,-2.125 0.875,-2.5 -2.5,0.84375 -2.09375,-1.59375 z m 138.34375,5.5625 0.0312,2.625 -2.15625,1.5 2.5,0.78125 0.75,2.53125 1.5625,-2.125 2.625,0.03125 -1.5625,-2.09375 0.84375,-2.5 -2.46875,0.8125 -2.125,-1.5625 z m -34.9375,5.4375 0.0312,2.625 -2.1875,1.5 2.53125,0.8125 0.75,2.5 1.53125,-2.125 2.625,0.0625 -1.5625,-2.125 0.875,-2.5 -2.5,0.84375 -2.09375,-1.59375 z m -263.34375,1.03125 0,2.65625 -2.15625,1.5 2.5,0.78125 0.78125,2.53125 1.53125,-2.125 2.625,0.03125 -1.5625,-2.125 0.875,-2.46875 -2.5,0.8125 -2.09375,-1.59375 z m -11.875,0.65625 0,2.625 -2.15625,1.5 2.53125,0.8125 0.75,2.5 1.53125,-2.125 2.625,0.0625 -1.5625,-2.125 0.875,-2.5 -2.5,0.84375 -2.09375,-1.59375 z m 18.40625,8.78125 0.0312,2.625 -2.15625,1.5 2.5,0.8125 0.75,2.5 1.53125,-2.125 2.625,0.0625 -1.53125,-2.125 0.84375,-2.5 -2.5,0.84375 -2.09375,-1.59375 z m 168.84375,9.8125 0.0312,2.65625 -2.15625,1.5 2.5,0.78125 0.40625,1.40625 -0.46875,0.15625 -2.09375,-1.59375 0,2.625 -2.15625,1.5 2.5,0.8125 0.75,2.5 1.5625,-2.125 2.625,0.0625 -1.5625,-2.125 0.875,-2.5 -0.53125,0.1875 0.375,-0.53125 2.65625,0.0625 -1.5625,-2.125 0.84375,-2.46875 -2.5,0.8125 -2.09375,-1.59375 z m 86.21875,4.5 0.0312,2.625 -2.15625,1.5 2.5,0.8125 0.75,2.5 1.5625,-2.125 2.625,0.0625 -1.5625,-2.125 0.84375,-2.5 -2.46875,0.84375 -2.125,-1.59375 z"
       style="fill:#ffdd55;stroke:#0000ff"
       inkscape:connector-curvature="0" />
    <path
       id="use3995"
       d="m 668.56979,-2.8578651 0,2.625 -2.15625,1.5 2.5,0.8125 0.78125,2.5 1.53125,-2.125 2.625,0.0625 -1.5625,-2.125 0.875,-2.5 -2.5,0.84375 -2.09375,-1.59375 z m -94.03125,0.96875 0,2.625 -2.15625,1.5 2.5,0.8125 0.78125,2.5 1.53125,-2.125 2.625,0.03125 -1.5625,-2.09375 0.875,-2.5 -2.5,0.84375 -2.09375,-1.59375 z m -167.375,5.71875 0,2.625 -2.15625,1.5 2.5,0.8125 0.75,2.4375001 -1,0.6875 2.53125,0.8125 0.75,2.5 1.53125,-2.125 2.625,0.0625 -1.5625,-2.125 0.875,-2.5000001 -1.65625,0.5625 -1.46875,-2 0.875,-2.5 -2.5,0.84375 -2.09375,-1.59375 z m 171.15625,1.15625 0,2.625 -2.15625,1.53125 2.53125,0.78125 0.75,2.5312501 1.53125,-2.15625 2.625,0.0625 -1.5625,-2.1250001 0.875,-2.46875 -2.5,0.8125 -2.09375,-1.59375 z m -167.0625,4.1875 0.75,0.03125 -0.5,0.15625 -0.25,-0.1875 z m -1.84375,0.53125 0,0.6875001 -1,0.6875 1,-1.3750001 z m 176.1875,5.0625001 0.0312,2.625 -2.15625,1.5 2.5,0.8125 0.75,2.5 1.53125,-2.125 2.65625,0.0625 -1.5625,-2.125 0.84375,-2.5 -2.5,0.84375 -2.09375,-1.59375 z m -15.59375,6.6875 0,2.625 -2.15625,1.5 2.5,0.8125 0.78125,2.5 1.53125,-2.125 2.625,0.0625 -1.5625,-2.125 0.875,-2.5 -2.5,0.84375 -2.09375,-1.59375 z m 138.34375,5.5625 0.0312,2.625 -2.15625,1.5 2.5,0.78125 0.75,2.53125 1.5625,-2.125 2.625,0.03125 -1.5625,-2.09375 0.84375,-2.5 -2.46875,0.8125 -2.125,-1.5625 z m -34.9375,5.4375 0.0312,2.625 -2.1875,1.5 2.53125,0.8125 0.75,2.5 1.53125,-2.125 2.625,0.0625 -1.5625,-2.125 0.875,-2.5 -2.5,0.84375 -2.09375,-1.59375 z m -263.34375,1.03125 0,2.65625 -2.15625,1.5 2.5,0.78125 0.78125,2.53125 1.53125,-2.125 2.625,0.03125 -1.5625,-2.125 0.875,-2.46875 -2.5,0.8125 -2.09375,-1.59375 z m -11.875,0.65625 0,2.625 -2.15625,1.5 2.53125,0.8125 0.75,2.5 1.53125,-2.125 2.625,0.0625 -1.5625,-2.125 0.875,-2.5 -2.5,0.84375 -2.09375,-1.59375 z m 18.40625,8.78125 0.0312,2.625 -2.15625,1.5 2.5,0.8125 0.75,2.5 1.53125,-2.125 2.625,0.0625 -1.53125,-2.125 0.84375,-2.5 -2.5,0.84375 -2.09375,-1.59375 z m 168.84375,9.8125 0.0312,2.65625 -2.15625,1.5 2.5,0.78125 0.40625,1.40625 -0.46875,0.15625 -2.09375,-1.59375 0,2.625 -2.15625,1.5 2.5,0.8125 0.75,2.5 1.5625,-2.125 2.625,0.0625 -1.5625,-2.125 0.875,-2.5 -0.53125,0.1875 0.375,-0.53125 2.65625,0.0625 -1.5625,-2.125 0.84375,-2.46875 -2.5,0.8125 -2.09375,-1.59375 z m 86.21875,4.5 0.0312,2.625 -2.15625,1.5 2.5,0.8125 0.75,2.5 1.5625,-2.125 2.625,0.0625 -1.5625,-2.125 0.84375,-2.5 -2.46875,0.84375 -2.125,-1.59375 z"
       style="fill:#ffdd55;stroke:#0000ff"
       inkscape:connector-curvature="0" />
  </g>
</svg>
