<?xml version="1.0" encoding="UTF-8" standalone="no"?>
<!-- Created with Inkscape (http://www.inkscape.org/) -->

<svg
   xmlns:dc="http://purl.org/dc/elements/1.1/"
   xmlns:cc="http://creativecommons.org/ns#"
   xmlns:rdf="http://www.w3.org/1999/02/22-rdf-syntax-ns#"
   xmlns:svg="http://www.w3.org/2000/svg"
   xmlns="http://www.w3.org/2000/svg"
   xmlns:sodipodi="http://sodipodi.sourceforge.net/DTD/sodipodi-0.dtd"
   xmlns:inkscape="http://www.inkscape.org/namespaces/inkscape"
   width="700"
   height="36.850391"
   id="svg3420"
   version="1.1"
   inkscape:version="0.48.1 r9760"
   sodipodi:docname="Neues Dokument 9">
  <defs
     id="defs3422" />
  <sodipodi:namedview
     id="base"
     pagecolor="#ffffff"
     bordercolor="#666666"
     borderopacity="1.0"
     inkscape:pageopacity="0.0"
     inkscape:pageshadow="2"
     inkscape:zoom="1.1289699"
     inkscape:cx="360"
     inkscape:cy="45"
     inkscape:document-units="px"
     inkscape:current-layer="layer1"
     showgrid="false"
     units="mm"
     inkscape:window-width="941"
     inkscape:window-height="644"
     inkscape:window-x="114"
     inkscape:window-y="166"
     inkscape:window-maximized="0" />
  <metadata
     id="metadata3425">
    <rdf:RDF>
      <cc:Work
         rdf:about="">
        <dc:format>image/svg+xml</dc:format>
        <dc:type
           rdf:resource="http://purl.org/dc/dcmitype/StillImage" />
        <dc:title></dc:title>
      </cc:Work>
    </rdf:RDF>
  </metadata>
  <g
     id="layer1"
     inkscape:label="Layer 1"
     inkscape:groupmode="layer"
     transform="translate(0,-53.149618)">
    <path
       style="fill:#0000ff;stroke:#0000ff"
       id="path3428"
       d="m 16.547162,21.046627 c 1.625836,0.782023 3.421999,1.03618 5.197536,1.217066 1.842488,0.286036 3.630841,-0.220248 5.446536,-0.468525 1.566204,-0.168498 3.167081,-0.776441 4.44413,-1.702778 4.079679,-2.016049 9.000596,-4.986818 -9.249776,5.40357 -0.183208,0.104305 0.371165,-0.203582 0.538117,-0.332313 0.348896,-0.26902 0.749273,-0.730659 1.043226,-1.048617 1.070167,-0.948122 1.657908,-2.251663 2.253358,-3.521609 0.649614,-1.214527 1.054959,-2.524756 1.577246,-3.792288 0.464861,-1.082559 0.79353,-2.301083 0.265382,-3.417002 -1.233748,-0.785508 -2.407208,-1.677809 -3.754,-2.265238 -1.513134,-1.1547591 -3.276144,-0.966134 -5.061412,-0.862401 -1.284684,0.08571 -0.675946,-0.02625 -1.830975,0.3089 0,0 10.403326,-7.8571954 10.403326,-7.8571954 l 0,0 c 1.247983,-0.1168008 0.607471,-0.073185 1.921865,-0.1259085 1.958143,-0.00938 3.817275,0.2146243 5.481508,1.3456372 1.509178,0.8198784 3.013707,1.7508985 4.223454,2.9777697 0.709291,1.3923221 0.773564,2.9252236 0.240778,4.40604 -0.164574,0.408026 -0.399713,0.786532 -0.548043,1.20074 -0.314294,0.877659 -0.398453,1.841915 -1.043932,2.583126 -0.471089,1.417006 -1.179456,2.815524 -2.044019,4.023587 -0.423294,0.379054 -1.067479,1.42552 -1.457343,1.659564 -4.336586,2.603349 -8.728409,5.052323 -13.120637,7.533083 -1.515349,0.659347 -3.047005,1.198248 -4.7159,1.291896 -1.877257,0.278613 -3.742923,0.5364 -5.635188,0.176427 -1.9084476,-0.283879 -3.7973244,-0.701446 -5.5636246,-1.503562 0,0 10.9883876,-7.229969 10.9883876,-7.229969 z"
       inkscape:connector-curvature="0"
       transform="translate(0,53.149618)" />
    <path
       style="fill:#0000ff;stroke:#0000ff"
       id="path3430"
       d="m 61.390486,8.2353794 c -1.78272,1.1524929 -3.46158,2.4974806 -4.956941,4.0060216 -1.336849,1.345328 -2.126616,2.93653 -2.539336,4.764514 -0.306205,1.848416 -0.394291,3.72648 -0.07734,5.574876 0.358718,1.349586 1.480284,1.772535 2.579806,2.372538 1.520125,0.759138 3.088394,1.397653 4.681287,1.990294 1.622201,0.885835 3.384094,1.305806 5.20253,1.521805 1.761618,-0.165766 3.244251,-0.429572 4.909678,-1.001583 1.691276,-0.3265 3.158686,-1.279467 4.786693,-1.818443 1.827582,-0.407813 3.473517,-1.315357 5.288787,-1.759166 2.539974,-0.672236 5.028635,-1.52419 7.568048,-2.19519 3.354037,-1.162745 6.721156,-2.301033 10.014133,-3.631466 2.187104,-0.831716 4.240484,-1.964022 6.405084,-2.854175 1.90344,-0.529496 3.79369,-1.203896 5.78429,-1.210418 1.83566,0.02805 3.58045,0.932229 5.12469,1.874014 1.55714,0.747627 2.55264,2.147305 3.42421,3.582774 0.90261,1.72685 1.35198,3.585145 0.9779,5.505894 -2.57771,5.488617 -9.42168,8.719469 -14.87422,10.121807 -1.78417,0.286441 -3.63082,0.473794 -5.41735,0.154419 -1.452627,-0.283752 -2.87066,-0.28567 -4.053267,-1.241957 0,0 11.062457,-7.052566 11.062457,-7.052566 l 0,0 c 1.10384,0.562035 2.42398,0.507709 3.6186,0.7465 1.70796,0.04938 3.45096,-0.04491 5.07006,-0.636683 4.36757,-2.115149 0.93053,-0.475358 -9.62599,5.728977 -0.24671,0.145003 0.50948,-0.264745 0.74291,-0.430307 0.55136,-0.39107 0.79825,-0.694368 1.19583,-1.233988 0.15701,-0.213098 0.2945,-0.439906 0.44175,-0.659859 0.13494,-0.190885 0.32811,-0.351836 0.40482,-0.572655 0.42337,-1.218614 -0.39819,-2.784083 -0.8231,-3.876905 -0.78927,-1.270433 -1.71621,-2.364065 -3.09747,-3.01442 -1.46594,-0.769981 -2.92853,-1.494382 -4.63422,-1.270992 -1.894786,0.301427 -3.761298,0.84513 -5.53862,1.566221 -2.067904,0.939847 -4.128232,1.907141 -6.264985,2.682182 -3.358171,1.253466 -6.72449,2.488609 -10.141764,3.573412 -2.551542,0.760446 -5.101186,1.527501 -7.652759,2.287633 -1.754345,0.624916 -3.488135,1.305752 -5.268898,1.855823 -1.59231,0.670502 -3.162707,1.390633 -4.858565,1.771778 -1.68802,0.454166 -3.485892,0.661758 -5.228575,0.511095 -1.867539,-0.343142 -3.639257,-0.94494 -5.357816,-1.756297 -1.627157,-0.643802 -3.255517,-1.281522 -4.804673,-2.102257 -1.469635,-0.767177 -2.666809,-1.745367 -3.164336,-3.398582 -0.366232,-1.992084 -0.306921,-3.986908 -0.122107,-6.001788 0.305721,-2.003545 0.891138,-3.88873 2.28452,-5.4252 1.357765,-1.683485 3.082259,-2.912922 4.699919,-4.327733 0,0 12.234335,-4.7199476 12.234335,-4.7199476 z"
       inkscape:connector-curvature="0"
       transform="translate(0,53.149618)" />
    <path
       style="fill:#d40000;stroke:#0000ff"
       id="path3432"
       d="m 78.574791,8.4930688 c 0.655961,1.6280842 1.500799,2.9323172 3.115066,3.6813792 1.267725,0.891965 2.72109,1.148174 4.227594,1.287068 0.480771,0.280042 1.157668,-0.190759 1.637571,0.0704 1.014953,0.552325 1.550835,1.977114 2.389286,2.759605 1.063385,0.232718 2.179297,-0.798926 3.097114,-1.267125 4.423654,-1.88129 2.076834,-0.925921 -9.091583,5.292214 -0.389031,0.216597 0.749307,-0.481301 1.119773,-0.728311 1.095344,-0.730325 2.147973,-1.516816 3.209743,-2.294362 5.241788,-3.535642 10.585468,-6.953948 16.344585,-9.6172137 2.05104,-0.891392 4.17787,-1.5827259 6.33881,-2.1600491 2.0709,-0.7762099 4.18588,-1.4918711 6.32716,-2.060146 1.66361,-0.9227036 3.53002,-1.1499637 5.39206,-1.3244442 1.82248,-0.1801859 3.59108,-0.1886366 5.37486,0.2139215 1.74379,0.6069252 3.30318,1.5846999 4.857,2.563975 1.57905,0.7029503 3.04337,1.5720759 4.50351,2.4863745 1.11081,0.957505 1.9577,2.192872 2.68452,3.459357 0.82446,1.587766 1.03274,3.357416 1.16447,5.114 0.0958,1.783174 0.082,3.569856 0.0784,5.354911 0.23818,1.519541 -0.51406,2.978986 -0.46272,4.471306 0.32664,1.487603 2.07197,1.624103 3.34002,1.788404 2.3516,0.223893 4.68154,0.335916 6.97465,-0.285748 4.27469,-2.13952 4.0624,-2.053828 -9.32938,5.324666 -0.24548,0.135249 0.46646,-0.31466 0.67254,-0.504609 0.65383,-0.602655 1.06331,-1.344709 1.45617,-2.125991 0.75683,-1.685652 1.44189,-3.39839 1.21328,-5.26844 -0.71147,-1.668051 -2.51381,-2.435757 -4.1324,-2.999735 -2.02339,-0.69149 -3.59388,-1.981731 -4.78586,-3.728481 -1.06887,-1.811654 -0.87797,-3.699931 -0.0868,-5.557455 0.87847,-2.105855 2.25742,-3.9165944 3.5359,-5.7826347 0.6708,-1.0047782 0.33916,-0.5212088 0.99286,-1.4521176 0,0 11.95727,-5.22352022 11.95727,-5.22352022 l 0,0 c -0.64187,0.98777973 -0.29312,0.50409152 -1.05017,1.44824902 -1.15428,1.8922856 -2.71936,3.5023549 -3.59688,5.5711961 -0.67673,1.5595521 -1.46851,2.6937778 -0.51689,4.3950464 1.06793,1.558031 2.57544,2.488404 4.3586,3.084454 2.02358,0.893354 3.94116,2.01747 4.83239,4.152947 0.38321,2.072689 0.03,4.00708 -0.88263,5.908197 -2.11789,6.080724 -8.86794,8.971092 -14.94693,10.572096 -2.42667,0.35042 -4.89938,0.288532 -7.32515,-0.06774 -1.84101,-0.408404 -3.70388,-1.128132 -4.25771,-3.127369 -0.39694,-1.826337 0.4941,-2.886659 0.42194,-4.676942 0.006,-1.757976 0.0219,-3.516834 -0.0422,-5.274005 -0.0859,-1.557514 -0.18917,-3.149759 -0.90317,-4.568429 -0.63822,-1.075086 -1.37737,-2.157837 -2.37208,-2.929251 -1.41777,-0.939661 -2.93424,-1.68315 -4.42337,-2.499836 -1.47321,-0.86913 -2.9487,-1.789864 -4.64799,-2.1402804 -1.69007,-0.2598287 -3.40376,-0.09258 -5.09649,0.084044 -1.82197,0.2752992 -3.5299,0.8247832 -5.25015,1.4734912 -2.10517,0.646543 -4.19732,1.333109 -6.28358,2.037098 -2.123464,0.677094 -4.246671,1.351591 -6.246376,2.35314 -4.42583,2.185283 -1.933541,0.982197 9.322746,-5.543912 0.2719,-0.157645 -0.53504,0.331073 -0.7892,0.515983 -0.97488,0.709281 -0.60457,0.588607 -1.65632,1.237734 -0.33305,0.205553 -0.68619,0.376618 -1.02928,0.564927 -5.654073,3.832716 -10.737795,8.182412 -17.428613,10.593088 -1.436899,0.688279 -2.907512,1.249267 -4.172753,-0.05527 -1.295491,-1.695953 -1.155603,-2.029503 -3.455146,-2.088637 -1.618058,-0.269189 -3.131053,-0.765052 -4.496941,-1.703334 -1.705134,-1.09086 -2.733356,-2.617113 -3.641684,-4.403971 0,0 11.460608,-6.3999052 11.460608,-6.3999052 z"
       inkscape:connector-curvature="0"
       transform="translate(0,53.149618)" />
    <path
       style="fill:#d40000;stroke:#0000ff"
       id="path3434"
       d="m 186.73029,4.3763292 c 1.89101,1.4451674 3.73347,2.9722636 5.46474,4.6065346 1.50368,1.1502672 2.62247,2.6576992 3.57692,4.2724132 0.80446,1.497112 1.52663,2.976262 1.91364,4.638021 0.43548,1.763522 0.21351,3.38197 -0.51868,5.013977 -3.57175,4.928804 -9.8127,7.308858 -15.23387,9.682394 -1.80571,0.502189 -3.47962,1.327165 -5.2713,1.873842 -2.26604,0.661431 -4.62046,1.041977 -6.88077,1.714778 -1.89261,0.364871 -4.14087,1.175631 -6.04194,0.902814 -1.9926,-0.948004 -1.51161,-3.223501 -1.14847,-4.986864 0.29707,-1.705255 0.88793,-3.339279 1.51193,-4.947879 0.45044,-1.507188 1.00197,-2.985408 1.43834,-4.496833 0.248,-1.220364 -0.96022,-2.062036 -1.68721,-2.929066 -1.2087,-1.175342 -2.30015,-2.512021 -3.11264,-3.992472 -0.72602,-2.299648 -0.21025,-3.652492 1.42817,-5.295017 4.81328,-3.8222806 10.90585,-6.6588461 16.03415,-9.54501689 2.66739,-0.18776375 5.23495,0.67113309 7.7938,1.29119599 0.2974,0.08608 0.5948,0.172159 0.8922,0.2582385 0,0 -10.78043,7.3436544 -10.78043,7.3436544 l 0,0 c -0.2527,-0.086017 -0.50539,-0.1720342 -0.75808,-0.2580513 -2.38719,-0.6139774 -4.93879,-1.4440381 -7.35593,-0.5478984 19.44522,-11.3324688 10.52973,-6.2460215 6.21908,-3.4691897 -1.38559,1.1510995 -2.56091,1.6910335 -2.12811,3.7134601 0.75008,1.4088193 1.80306,2.6474673 2.92572,3.7735503 1.06142,1.186627 2.43811,2.264094 2.31714,4.007636 -0.33891,1.598289 -1.03905,3.052645 -1.39406,4.64563 -0.57908,1.575961 -1.28719,3.129044 -1.61729,4.776966 -0.0711,0.328925 -0.73177,2.829583 -0.39709,2.961916 0.1352,0.05345 0.28816,0.0388 0.43224,0.0582 1.94234,-0.159213 3.84617,-0.708238 5.73422,-1.163725 2.2935,-0.52175 4.58168,-1.067853 6.82129,-1.79417 1.743,-0.673757 3.50524,-1.292138 5.23767,-1.98886 4.53227,-2.04306 0.52821,-0.272821 -9.55324,5.672445 -0.24972,0.147267 0.53083,-0.236257 0.78083,-0.38306 0.7103,-0.417107 1.25723,-1.007511 1.82926,-1.58797 1.02273,-1.216992 1.31212,-2.570711 0.97102,-4.126727 -0.30416,-1.541787 -0.96426,-2.897138 -1.68379,-4.286246 -0.89445,-1.510953 -1.99774,-2.858055 -3.34323,-3.99525 -1.65817,-1.597927 -3.41311,-3.15458 -5.42591,-4.289898 0,0 11.00968,-7.1234688 11.00968,-7.1234688 z"
       inkscape:connector-curvature="0"
       transform="translate(0,53.149618)" />
    <path
       style="fill:#d40000;stroke:#0000ff"
       id="path3436"
       d="M 46.494287,8.1474996 C 46.277091,8.2482637 46.055377,8.3398135 45.842698,8.4497919 45.279254,8.7411537 43.597836,9.6307042 44.14628,9.3120045 62.524198,-1.3673682 56.514529,1.9134703 52.852816,4.5040942 51.201401,5.6113376 49.557383,6.6968977 48.036435,7.9807492 46.772058,9.3173867 45.339389,10.4581 43.861138,11.54538 c -1.034606,0.966635 -2.050751,1.998376 -2.741181,3.244058 -0.627079,1.56449 -1.087374,3.183441 -1.37281,4.843099 -0.191835,2.004966 -0.732051,3.959029 -0.83229,5.971675 -0.01025,2.101241 0.414091,2.115948 1.968315,3.049427 1.373021,0.563688 2.5698,1.453533 3.933144,2.030382 1.345215,0.442518 2.623877,1.056577 3.901929,1.663736 1.305757,0.656384 2.495892,0.366497 3.843988,0.130589 4.040076,-2.016138 8.767537,-4.885463 -9.586471,5.513474 0,0 12.226604,-4.729576 12.226604,-4.729576 l 0,0 c -2.211688,1.262304 -8.37905,6.293875 -13.12044,7.062609 -1.507904,0.174067 -2.929808,-0.06556 -4.295523,-0.761551 -1.263858,-0.617767 -2.5815,-1.117585 -3.876649,-1.665399 -1.349922,-0.693148 -2.659547,-1.463804 -4.022036,-2.13467 -1.643008,-0.998252 -2.60196,-2.247775 -2.574065,-4.261664 -0.05141,-2.080637 0.602473,-4.056507 0.730171,-6.123316 0.227094,-1.762483 0.672762,-3.44908 1.196049,-5.142086 0.531129,-1.531733 1.476342,-2.580282 2.499843,-3.795158 1.348357,-1.270526 3.095935,-2.060197 4.271738,-3.53085 1.414475,-1.441189 3.025571,-2.575102 4.727497,-3.6468197 5.142293,-3.4287569 10.283152,-7.2390316 16.227293,-9.04462724 0,0 -10.471957,7.92878754 -10.471957,7.92878754 z"
       inkscape:connector-curvature="0"
       transform="translate(0,53.149618)" />
    <path
       style="fill:#2b0000;stroke:#0000ff"
       id="path3438"
       d="m 60.465287,24.721059 c -1.124151,-1.647965 -2.468131,-3.059165 -3.341974,-4.886364 -0.632452,-1.750892 -0.91183,-3.610494 -1.282634,-5.432096 -0.37133,-1.889781 0.20929,-3.461193 1.330103,-4.957451 C 60.625444,5.42914 69.26619,1.7120742 71.951828,0.10629857 75.429738,-1.9731857 64.926779,4.1472279 61.414254,6.1676925 c 4.816182,-3.7189587 9.600543,-7.2711931 15.533794,-7.6597279 1.737833,-0.075522 3.478032,-0.0569 5.217,-0.050363 1.888233,-0.1601993 3.609584,0.2818084 5.33167,0.98942872 1.557564,0.49136241 2.929598,1.45752686 3.937477,2.73229708 0.688071,0.6578007 1.062607,1.5298891 1.562956,2.3193927 0,0 -11.323672,6.5877997 -11.323672,6.5877997 l 0,0 C 81.213724,10.33601 80.843764,9.5332579 80.208055,8.9042836 79.272632,7.8088474 77.996142,7.1767102 76.643425,6.7305369 75.015865,6.1290407 73.343001,6.03517 71.615727,6.120068 69.89864,6.1221334 68.175336,6.1076739 66.466492,6.2998464 65.710115,6.4182091 64.976975,6.5415253 64.266478,6.8422613 64.050374,6.9337328 63.433478,7.2740017 63.635908,7.1553 78.184481,-1.3757553 77.47151,-0.95107012 73.583248,1.3885752 50.67554,14.832594 64.606868,6.6314753 72.230538,2.2490196 72.48684,2.101685 71.746817,2.5910368 71.48839,2.7346103 70.455127,3.3086561 70.794342,2.9178359 69.844765,3.66296 c -0.253244,0.1987186 -0.474659,0.434954 -0.711989,0.652431 -1.004159,1.2396417 -1.974256,2.213276 -1.7978,3.9446981 0.332627,1.7302336 0.657041,3.4697289 1.121967,5.1650529 0.793925,1.77297 2.103728,3.09497 3.306534,4.591013 0,0 -11.29819,6.704904 -11.29819,6.704904 z"
       inkscape:connector-curvature="0"
       transform="translate(0,53.149618)" />
    <path
       style="fill:#2b0000;stroke:#0000ff"
       id="path3440"
       d="m 121.80072,9.7502021 c 2.087,-0.4594787 4.11629,-0.1078398 6.15833,0.3622959 1.51702,0.670158 3.08514,1.584323 4.18676,2.849048 1.18758,1.060411 1.63016,2.501573 1.90128,4.016291 0.22652,1.730051 0.21289,3.479539 0.21631,5.220935 0.14311,1.959194 -0.37089,3.649917 -1.39828,5.28645 -3.17221,4.181027 -8.53338,5.65368 -13.0826,8.269394 -0.78943,0.453912 -1.66778,0.695124 -2.53796,0.9323 -1.10569,0.730772 -2.43277,0.711272 -3.67216,1.000483 -0.65535,0.152924 -1.28976,0.387089 -1.94406,0.544438 -1.99852,0.794245 -4.08098,1.339047 -6.23909,1.259111 -0.97322,0.01462 -1.84746,-0.310457 -2.72514,-0.680429 0,0 10.8668,-7.30704 10.8668,-7.30704 l 0,0 c 0.77393,0.252957 1.54782,0.377825 2.36961,0.313798 2.09059,-0.192061 4.05086,-0.873344 6.04892,-1.481882 1.88212,-0.49906 3.80263,-0.837006 5.59072,-1.642547 0.8476,-0.332656 0.80639,-0.293744 1.62238,-0.705491 0.26429,-0.133359 1.0389,-0.567687 0.78419,-0.416832 -19.34899,11.459832 -12.37068,7.886747 -9.03317,5.115548 1.25169,-1.616118 1.82049,-2.415737 1.7328,-4.566961 6.5e-4,-1.673769 0.0189,-3.352783 -0.14773,-5.020267 -0.18889,-1.30916 -0.51744,-2.443559 -1.55127,-3.347045 -0.98447,-1.016618 -2.30791,-1.81539 -3.65546,-2.223911 -2.00273,-0.384766 -3.9815,-0.412009 -5.96314,0.151101 0,0 10.47196,-7.9287879 10.47196,-7.9287879 z"
       inkscape:connector-curvature="0"
       transform="translate(0,53.149618)" />
    <path
       style="fill:#2b0000;stroke:#0000ff"
       id="path3442"
       d="m 156.32892,8.1474996 c -4.51491,0.624983 -15.90986,8.0942584 5.58793,-4.141291 -1.3763,0.9086737 -1.33776,1.8712683 -0.60028,3.197857 0.81523,1.5302204 1.55819,3.0677354 2.45111,4.5559674 1.1087,1.554932 2.05489,3.195231 2.88404,4.914433 0.73889,1.634861 1.74464,3.115602 2.37597,4.797822 0.50135,1.630206 0.69121,3.332769 0.47113,5.02341 -0.23993,0.985873 -0.59369,2.221658 -1.54217,2.786716 -11.20357,6.674542 -7.65119,5.29351 -12.68068,7.177224 -1.42915,0.37855 -2.93628,1.482707 -4.39507,0.682515 -0.55865,-0.959959 -0.39118,-0.467027 -0.55565,-1.459626 0,0 11.7388,-5.957982 11.7388,-5.957982 l 0,0 c -0.18676,0.237177 -0.0834,0.218088 -0.31339,-0.03557 1.20303,-0.504534 2.58496,-0.682825 3.747,-1.341135 4.4615,-2.397689 -1.45951,0.773844 -9.72782,5.683955 -0.91253,0.541903 1.265,-0.493269 1.68827,-1.165375 0.12358,-0.196229 0.18969,-0.423234 0.28454,-0.63485 0.33709,-1.493059 0.3,-2.946643 -0.14131,-4.431031 -0.56685,-1.657348 -1.55543,-3.112386 -2.27517,-4.704432 -0.79942,-1.690762 -1.74202,-3.28382 -2.84923,-4.792009 -0.89748,-1.495755 -1.62564,-3.045389 -2.46172,-4.572211 -0.95567,-1.5953 -1.58238,-3.370188 -0.20742,-4.9443699 5.84144,-3.4339944 10.52584,-7.3466241 16.99308,-8.56880204 0,0 -10.47196,7.92878754 -10.47196,7.92878754 z"
       inkscape:connector-curvature="0"
       transform="translate(0,53.149618)" />
    <path
       style="fill:#2b0000;stroke:#0000ff"
       id="path3444"
       d="m 201.67167,1.5598372 c 1.84025,0.8755717 3.63124,1.8842928 5.3377,3.0011209 1.96754,1.2975077 3.60426,2.9482274 4.82466,4.958449 0.69026,1.5957779 1.32307,3.2375609 1.73237,4.9317959 0.28666,1.836337 -0.31743,3.596516 -0.86954,5.321852 -0.56727,1.756686 -1.35784,3.416399 -2.271,5.015335 -3.4517,5.363261 -8.90638,6.807274 -14.80085,10.209365 -1.19897,0.666206 -2.56967,0.731624 -3.86371,1.052712 -0.53876,0.133681 -1.04933,0.363087 -1.57922,0.528449 -1.87964,0.283632 -1.81437,-1.808673 -1.5558,-3.084525 1.88074,-4.627633 13.56322,-9.177869 14.10719,-9.489167 1.70582,-0.466926 3.36924,-1.030104 5.11772,-1.33234 1.72904,-0.636052 3.54275,-0.910496 5.36863,-1.067251 2.26575,-0.454553 4.47961,-1.064722 6.76458,-1.429515 5.82173,-1.216828 13.15518,-6.271623 -5.09389,4.123145 1.55317,-0.893142 2.29514,-2.468519 2.95358,-4.055566 1.09012,-2.098562 1.66411,-4.34171 1.9853,-6.668913 0.31336,-1.888578 0.0504,-3.6274487 -1.09363,-5.1640286 -1.15411,-0.9638573 -2.61025,-1.7780418 -4.1388,-1.8138775 -0.20767,0.078841 -0.43316,0.1211883 -0.623,0.2365221 -0.19359,0.1176175 -0.70659,0.5606725 -0.50845,0.4508786 3.58586,-1.9870242 7.09643,-4.108094 10.68511,-6.090037 0.18348,-0.1013337 -0.32375,0.2715993 -0.45114,0.4380476 -0.33604,0.4390508 -0.33795,0.6070617 -0.47444,1.0985453 -0.21349,1.5432042 0.92719,2.1971464 1.99326,3.0450935 1.19441,0.8259684 2.40038,1.3554325 3.81953,0.8892259 0,0 -10.49175,7.7897251 -10.49175,7.7897251 l 0,0 c -1.63047,-0.122756 -3.06317,-0.731396 -4.36063,-1.73558 -1.4135,-1.098263 -2.68969,-2.248964 -2.70234,-4.1844431 0.14949,-6.0168804 8.14704,-9.7280301 13.81543,-9.44588891 1.74466,0.50812692 3.4386,1.30740101 4.67295,2.67754121 1.28212,1.8015919 1.78018,3.8726941 1.45324,6.080737 -0.2694,2.3908048 -0.64096,4.7754898 -1.74721,6.9458658 -0.71425,1.695352 -1.25623,3.508725 -2.64027,4.811527 -6.43279,3.697589 -10.61816,7.225687 -17.3807,8.352926 -2.3072,0.442817 -4.56137,1.137545 -6.89778,1.426253 -1.79886,0.245847 -3.53947,0.706166 -5.29375,1.16387 -1.6767,0.407025 -3.3672,0.885684 -4.92778,1.625856 3.4962,-2.030393 6.99239,-4.060785 10.48859,-6.091177 -0.55653,0.322267 -1.25265,0.544696 -1.71625,1.003774 -1.44832,1.434176 0.60062,-0.322967 -0.80575,0.847972 -0.56202,0.978964 -0.0142,-0.09535 -0.34433,0.954244 -0.11308,0.359448 -0.7063,-0.132786 0.36063,-0.289517 1.77379,-0.507384 3.63621,-0.761783 5.22865,-1.77185 -3.42441,1.988741 -6.84882,3.977481 -10.27323,5.966221 0.79011,-0.341758 0.82715,-0.265584 1.42658,-0.872684 0.57396,-0.581309 0.94645,-1.339825 1.59503,-1.853823 0.9749,-1.503006 1.84194,-3.068362 2.3961,-4.780061 0.58678,-1.477416 1.09914,-3.048826 1.1639,-4.64363 -0.33338,-1.57915 -0.91071,-3.099291 -1.47677,-4.60456 -1.08944,-1.862445 -2.64531,-3.319583 -4.47365,-4.461943 -1.73282,-1.064089 -3.52097,-2.0574809 -5.42346,-2.7867031 0,0 10.98839,-7.2299687 10.98839,-7.2299687 z"
       inkscape:connector-curvature="0"
       transform="translate(0,53.149618)" />
    <path
       style="fill:#ffaaaa;stroke:#0000ff"
       id="path3446"
       d="m 267.85666,6.1667636 c -1.92782,-0.057729 -3.87719,0.4764303 -5.60637,1.3059638 -3.99491,2.0756357 -9.64358,5.2460176 8.88136,-5.127908 0.23179,-0.1298036 -0.42661,0.3185246 -0.6207,0.4999171 -0.49084,0.4587104 -0.70538,0.7801379 -1.1127,1.307583 -0.8952,1.3702472 -1.2952,2.9816659 -1.27075,4.6077949 0.23342,1.6701936 1.27458,2.2879086 2.78455,2.7120806 1.66819,0.70792 3.45246,0.958465 5.24343,1.099448 1.71482,0.175715 3.29409,-0.443945 4.74155,-1.303287 1.94639,-0.805589 3.99079,-1.164471 6.08456,-1.012544 2.46909,0.315478 4.16889,1.576335 5.20554,3.791606 0.86293,2.321789 0.52524,3.94045 -0.74519,6.011609 -0.9147,1.240795 -2.03988,2.306524 -3.37848,3.080034 -10.94568,6.325005 -8.0569,4.790823 -12.96528,7.374224 -1.77134,0.924309 -3.5627,1.6291 -5.53382,1.973941 -2.58882,0.336678 -5.12906,-0.878688 -7.33071,-2.113139 -2.53597,-1.233678 -4.60248,-2.845746 -5.99167,-5.30384 -1.32373,-2.392869 -1.15422,-4.897797 -0.5808,-7.469237 0.7402,-2.180288 1.61502,-4.318578 2.7942,-6.298871 4.2182,-5.1933655 10.80868,-8.6286113 17.44531,-9.1584918 2.95924,-0.1423742 5.92325,-0.1166449 8.88503,-0.1212157 2.35851,-0.1379288 4.56679,0.6440427 6.58378,1.7990891 2.18456,1.2330271 4.06843,2.9094529 6.21561,4.1934326 1.33358,1.1225816 2.81985,1.6657279 4.51992,1.8844631 2.42979,0.1245007 4.80758,-0.7015188 7.19253,-1.1168223 2.44225,-0.3952709 4.89631,-0.3050141 7.28046,-1.0027336 2.05997,-0.5326421 4.20869,-0.7423466 6.25312,-1.3199349 1.5178,-0.6950956 3.62908,-0.1632253 4.88408,-1.3371263 -11.86802,8.3446718 -7.04031,7.3557988 -14.17599,6.5287968 -2.96221,-0.423907 -4.93668,-0.07618 -7.56502,1.270665 17.76975,-10.1939853 10.79856,-7.0268749 7.73312,-3.4574719 -1.0613,1.2357759 -1.85125,2.5504189 -2.59735,3.9885839 -1.39044,2.477078 -1.74029,5.267209 -2.38402,7.975596 -2.87456,5.943925 -10.37315,7.317986 -15.79979,10.596394 3.59396,-2.073008 7.18791,-4.146017 10.78186,-6.219026 -0.44587,-0.108529 -0.88109,-1.033193 -0.33018,-1.230814 0.4881,-0.17509 1.03306,-0.09315 1.55064,-0.12495 3.02006,-0.130651 6.00684,-0.59341 8.96063,-1.212727 2.16426,-0.574753 4.16068,-0.709479 6.17953,0.308275 1.92712,0.877822 3.76718,1.908409 5.63555,2.899345 1.80085,0.941473 3.78763,1.125598 5.77876,1.240971 1.91977,0.07474 3.84156,0.04926 5.76223,0.0376 1.00999,0.06333 2.0658,0.540437 3.09086,0.316513 0.29355,-0.06413 1.07702,-0.53207 0.81534,-0.384397 -11.49691,6.488095 -13.79573,8.059766 -9.79194,5.372857 1.71282,-1.758778 2.15256,-4.343258 2.56062,-6.677154 0.41269,-2.245684 0.20095,-4.487088 -1.16368,-6.361074 -0.92483,-0.693938 -2.32249,-1.367952 -3.49639,-0.825477 -0.20968,0.0969 -0.71952,0.572741 -0.51735,0.46102 3.61787,-1.999243 7.18577,-4.087622 10.77865,-6.131432 -1.1059,1.047466 0.67837,2.005761 1.50506,2.531451 1.89047,0.837732 3.98998,1.180246 6.0228,1.526396 3.36274,0.05237 6.62924,-1.100984 9.81385,-2.068996 1.57958,-0.622884 3.21006,-1.092057 4.7022,-1.91838 0.38595,-0.213731 1.50789,-0.916133 1.12331,-0.699946 -10.10535,5.680604 -13.22283,8.184732 -9.35401,5.153707 0.23915,-0.186271 0.45671,-0.404198 0.71744,-0.558811 5.36392,-3.18075 24.68474,-14.2833391 1.35131,-0.849493 0,0 12.18211,-4.739749 12.18211,-4.739749 l 0,0 c -39.31206,22.907066 7.32851,-4.3132396 -2.1847,1.305112 -5.50326,4.500115 -11.88042,7.935631 -18.62345,10.088117 -3.35626,0.965915 -6.80273,2.160244 -10.34062,1.708529 -2.1828,-0.42877 -4.4713,-0.734425 -6.3902,-1.933307 -1.47414,-1.067564 -3.17401,-2.453449 -2.62465,-4.484481 5.59571,-3.384878 10.87986,-10.3286318 16.53649,-5.153833 1.44307,2.170481 2.00968,4.698243 1.54126,7.284987 -0.38745,2.541188 -0.83924,5.134841 -2.07046,7.42373 -6.75368,7.764658 -9.77063,7.761687 -16.72321,7.276619 -1.93203,7.61e-4 -3.86692,0.0053 -5.79435,-0.146886 -2.1264,-0.213576 -4.19993,-0.594675 -6.07096,-1.696266 -1.8295,-1.008685 -3.69628,-1.935479 -5.62024,-2.753102 -1.86501,-0.589298 -3.73102,-0.175311 -5.60618,0.220062 -3.02745,0.547901 -6.08795,0.876035 -9.1471,1.193151 -1.36776,0.173302 -2.26639,0.569308 -2.96076,-0.966979 -0.0776,-0.171647 -0.16651,-0.463632 -0.008,-0.565042 3.78129,-2.415708 7.73016,-4.558476 11.59524,-6.837714 4.08034,-1.97425 8.86328,-5.007591 -8.4343,5.155637 -0.30057,0.176602 0.60852,-0.344064 0.88818,-0.552204 0.68289,-0.508247 0.91954,-0.842153 1.47473,-1.472287 0.99941,-2.651364 0.87369,-5.689782 2.39716,-8.195568 3.41739,-7.804129 8.35801,-9.3269644 16.68377,-13.8790662 2.60558,-1.012502 5.25586,-1.1223654 8.01967,-0.7191106 1.24072,0.1805197 2.86707,0.2741355 3.84178,1.1866034 3.21335,3.0081643 -1.23293,19.9880204 -10.51922,7.9823724 -1.66623,0.262169 -3.32315,0.570966 -4.95412,1.006441 -2.07493,0.402955 -4.14418,0.824918 -6.20633,1.290633 -2.41114,0.467864 -4.88123,0.427041 -7.29267,0.919578 -2.49894,0.474146 -5.02741,1.273246 -7.58916,0.827436 -1.7719,-0.409106 -3.3176,-1.190812 -4.72744,-2.352191 -2.04778,-1.383101 -3.95327,-2.986148 -6.17715,-4.098131 -1.9438,-0.9520595 -3.97476,-1.4574042 -6.15687,-1.3287469 -2.93227,-0.024168 -5.87535,-0.059743 -8.79538,0.2499343 -1.02984,0.1634636 -1.5069,0.1949266 -2.48623,0.5157636 -0.35712,0.116997 -1.36686,0.615959 -1.04632,0.41979 18.18905,-11.13175515 11.80174,-7.4072411 8.32215,-4.7108353 -1.28221,1.8479251 -2.11135,3.8882781 -3.00046,5.9461783 -0.68564,2.229696 -1.01847,4.419264 0.14338,6.561292 1.33652,2.29433 3.10308,3.580828 5.49019,4.748033 2.19419,1.048404 4.523,1.911726 6.96808,1.265221 1.86197,-0.503714 3.58515,-1.33616 5.29377,-2.223149 4.40806,-2.293005 1.26449,-0.676224 -9.27379,5.451827 -0.31081,0.180739 0.62016,-0.363996 0.93136,-0.544062 0.88068,-0.509568 1.06873,-0.548493 1.84259,-1.241739 0.28949,-0.25933 0.54301,-0.55621 0.81451,-0.834315 1.25847,-1.458097 1.9621,-2.829296 1.27872,-4.753973 -0.78673,-1.851887 -2.33514,-2.558256 -4.32454,-2.591223 -2.02728,0.137925 -3.9952,0.594228 -5.80471,1.551383 -1.66418,0.662145 -3.36388,0.993883 -5.16161,0.707779 -1.86301,-0.236959 -3.68557,-0.648354 -5.43299,-1.353615 -1.86356,-0.801009 -3.12637,-1.963255 -3.58033,-4.006573 -0.17454,-1.836734 0.1773,-3.698341 0.9357,-5.3809407 3.06584,-5.3747648 9.44514,-7.6158798 15.02428,-9.94549059 1.95405,-0.61636041 3.94126,-1.04306271 6.00536,-0.99196351 0,0 -10.6288,7.7222734 -10.6288,7.7222734 z"
       inkscape:connector-curvature="0"
       transform="translate(0,53.149618)" />
    <path
       style="fill:#550000;stroke:#0000ff"
       id="path3448"
       d="m 343.25593,-0.86732274 c -0.93919,1.84934023 -1.43446,3.87591694 -1.6686,5.92599924 -0.17635,1.8284277 -0.0164,3.6653188 -0.28829,5.4837725 -0.22322,1.716006 -0.98707,3.262433 -1.88225,4.719142 -2.91575,4.049509 -11.13159,6.874619 -13.37988,8.108118 -0.80258,0.440326 -1.64203,0.645829 -2.42619,1.128735 3.49336,-1.999578 6.97816,-4.01418 10.48007,-5.998735 0.24048,-0.13628 -0.46256,0.302736 -0.69444,0.453167 -0.49351,0.320144 -0.96691,0.673267 -1.47889,0.962947 -4.01669,2.272656 -7.97959,4.646779 -12.07905,6.766518 -0.33896,0.175269 -0.76175,0.04675 -1.14263,0.07013 -2.20199,0.08282 -4.35964,-0.474477 -6.41523,-1.209429 -1.40997,-0.711715 -2.35109,-2.098695 -2.75354,-3.603379 0,0 11.71327,-6.039082 11.71327,-6.039082 l 0,0 c -0.5425,0.811683 1.1934,2.119744 1.83841,2.337692 1.9197,0.651445 3.9567,1.054188 5.98026,0.694172 4.77696,-1.547248 1.18628,-0.461777 -9.30572,5.679799 -0.2517,0.14733 0.51936,-0.267082 0.76617,-0.422448 1.9064,-1.200057 -0.45895,0.151881 1.41229,-0.941666 3.95286,-2.310041 7.91281,-4.607915 11.86922,-6.911873 0.52771,-0.216167 4.3073,-2.114114 2.46386,-1.006447 -3.39899,2.042349 -6.87569,3.953622 -10.27165,6.001008 -0.25879,0.156019 0.58173,-0.177393 0.84827,-0.319756 0.23183,-0.123824 0.42154,-0.314028 0.6323,-0.471042 0.83017,-1.351885 1.84597,-2.657993 2.0728,-4.277754 0.40119,-1.794413 0.32518,-3.587928 0.40844,-5.421964 0.18805,-2.1664942 0.68319,-4.2100341 1.31688,-6.2856326 0,0 11.98412,-5.42199314 11.98412,-5.42199314 z"
       inkscape:connector-curvature="0"
       transform="translate(0,53.149618)" />
    <path
       style="fill:#550000;stroke:#0000ff"
       id="path3450"
       d="m 295.42472,20.390994 c -0.93434,1.782766 -1.794,3.598848 -2.60116,5.442437 -0.75979,1.795951 -1.90977,3.421025 -3.25775,4.823505 -4.8216,5.065114 -10.61434,7.050481 -16.83721,8.527864 -1.99219,0.280771 -3.89168,0.924187 -5.88732,1.185383 -2.42095,0.416178 -3.92671,0.231011 -6.22746,-0.504466 -1.73608,-0.50993 -3.28202,-1.534176 -4.86173,-2.40858 -1.67603,-0.898166 -3.42822,-1.59847 -5.23613,-2.1846 -2.27294,-0.615343 -4.30694,-1.798879 -6.4944,-2.631254 -1.77836,-0.730083 -2.83994,-1.982232 -3.03594,-3.880361 0.20766,-1.666511 0.32922,-3.345003 0.57743,-5.010558 0.40561,-2.169017 0.43276,-4.379307 0.65533,-6.567507 0.28237,-1.740658 1.31108,-3.006383 2.57019,-4.15875 4.5946,-4.3964589 10.26782,-6.9147641 16.16645,-8.6159064 1.19561,-0.338056 2.62815,-0.4018845 3.71289,-1.0084917 0,0 -10.36332,8.0805081 -10.36332,8.0805081 l 0,0 c -1.2332,0.21738 -2.44676,0.578396 -3.65753,0.895372 -0.85466,0.277001 -1.74723,0.503155 -2.56667,0.877336 -0.26801,0.122383 -1.03562,0.562 -0.78187,0.412259 11.56475,-6.8246329 13.60785,-8.1502485 9.56146,-5.5539463 -1.17373,0.9990214 -2.33964,1.8612513 -2.94189,3.3421233 -0.48283,2.145208 -0.28803,4.403264 -0.69029,6.570352 -0.0108,0.07201 -0.27192,1.789993 -0.28299,1.921762 -0.0648,0.771605 0.0763,1.629259 -0.0919,2.389951 -0.0339,0.153406 -0.14138,0.280615 -0.21207,0.420922 -0.0581,1.620718 0.71712,2.032078 2.16329,2.667367 2.13152,0.912546 4.20405,1.965246 6.45847,2.561497 1.86062,0.64739 3.67526,1.381501 5.40281,2.33747 1.53382,0.799622 2.97891,1.808707 4.6881,2.20087 1.9553,0.524678 3.88831,0.420274 5.87273,0.03545 1.94795,-0.398117 3.87889,-0.878011 5.82608,-1.279112 0.96951,-0.268458 1.98165,-0.457801 2.93318,-0.784917 0.3315,-0.113962 1.27289,-0.580228 0.97333,-0.398179 -5.4279,3.29864 -14.02452,8.179635 -9.43206,5.569324 0.40838,-0.418318 0.9043,-0.748638 1.2911,-1.186985 0.20688,-0.234454 0.32723,-0.533597 0.51021,-0.787153 0.60055,-0.83222 1.42765,-1.441616 1.69513,-2.484448 0.88446,-1.759012 1.56627,-3.63079 2.41739,-5.394544 0,0 11.98412,-5.421993 11.98412,-5.421993 z"
       inkscape:connector-curvature="0"
       transform="translate(0,53.149618)" />
    <path
       style="fill:#550000;stroke:#0000ff"
       id="path3452"
       d="m 400.83054,9.7618356 c -1.09976,1.6833804 -1.78404,3.5586754 -2.46177,5.4375364 -0.5173,1.729134 -1.04726,3.550416 -0.57046,5.342377 0.0899,0.126712 0.14773,0.284005 0.26981,0.380136 0.33192,0.261363 0.77122,0.34542 1.15191,0.528582 1.03662,0.498741 2.04013,1.019464 3.1034,1.461428 1.67751,0.56343 3.01062,1.765283 4.62776,2.4477 1.5138,0.451115 3.14568,0.698484 4.70697,0.41084 1.78416,-0.150983 3.33671,-0.863876 4.91494,-1.62885 -20.24271,11.237659 -10.82393,7.863569 -8.3863,3.642373 1.09664,-1.302461 1.70544,-2.691911 2.03232,-4.350482 0.20322,-1.764715 -0.75879,-3.164444 -1.83805,-4.456608 -1.44101,-1.454997 -2.36866,-2.086505 -4.38175,-2.390867 0.93109,4.802094 -0.0942,0.216457 11.06041,-7.1357754 0.1134,-0.074747 0.2685,0.041346 0.40222,0.065192 0.74942,0.1336516 1.48806,0.2377922 2.24595,0.3156399 1.06003,0.13942 2.09044,0.108199 3.14832,-0.00122 0,0 -10.43761,7.6752773 -10.43761,7.6752773 l 0,0 c -1.12171,0.01747 -2.2371,0.0081 -3.35264,-0.135303 -7.09537,-0.972377 -2.7525,-1.506788 7.41486,-8.5575322 0.13069,-0.090628 0.23924,0.2096099 0.35886,0.3144148 1.82328,0.699573 3.3667,1.6783734 4.66953,3.1638924 1.31972,1.567336 2.46286,3.290789 2.40029,5.424411 -0.23195,1.725159 -0.45497,3.496574 -1.72509,4.802318 -0.41983,0.574146 -0.60816,1.236062 -1.05532,1.789951 -3.28242,4.065862 -6.56807,4.954376 -12.77759,7.959524 -1.64244,0.723198 -3.39182,1.123294 -5.18251,1.255103 -1.75024,-0.01507 -3.50808,-0.217971 -5.11601,-0.957696 -1.51724,-0.788735 -2.88849,-1.840784 -4.48446,-2.479915 -1.85518,-0.803527 -4.17512,-1.459211 -5.25434,-3.279414 -0.61713,-2.03416 -0.24729,-4.07054 0.31848,-6.085515 0.56019,-1.89974 1.21725,-3.816817 2.21375,-5.535529 0,0 11.98412,-5.4219934 11.98412,-5.4219934 z"
       inkscape:connector-curvature="0"
       transform="translate(0,53.149618)" />
    <path
       style="fill:#550000;stroke:#0000ff"
       id="path3454"
       d="m 436.26107,10.647599 c -1.00912,1.730602 -2.00701,3.462726 -2.72449,5.336676 -0.61173,1.731457 -0.84159,3.390946 -0.16653,5.115372 0.97154,1.805355 2.80663,2.390932 4.50983,3.291205 2.08377,1.01237 4.27135,1.703885 6.55204,2.083512 3.07448,0.485232 6.10694,-0.325131 9.09081,-0.972793 1.72287,-0.396884 3.4087,-0.921213 4.96538,-1.772225 0.42877,-0.234398 1.67319,-1.009754 1.24677,-0.771108 -10.05787,5.628945 -12.96673,8.145476 -9.105,4.924095 1.89906,-1.806014 2.23326,-3.515526 1.62361,-6.001384 -1.06214,-2.882283 -3.36539,-4.954523 -5.91896,-6.533581 -2.43462,-1.625501 -4.0233,-1.86679 -6.88264,-1.765631 -1.18195,0.042 -2.40357,0.241328 -3.53597,0.597801 -0.32704,0.102952 -1.24492,0.570737 -0.94775,0.399716 12.69372,-7.3052341 13.81421,-8.0455586 10.08583,-5.62639 -0.72874,1.477198 3.13527,2.411327 4.01209,2.691927 3.42063,0.998168 6.92769,0.892688 10.42902,0.515098 2.68864,-0.518024 5.45866,-1.105148 7.99564,-2.1756398 0.5321,-0.2245208 1.01937,-0.5431595 1.52906,-0.8147393 -3.22644,1.8306031 -6.45287,3.6612061 -9.67931,5.4918091 1.53012,-1.062092 0.79582,-0.508618 2.20596,-1.656354 0,0 11.9565,-4.8488485 11.9565,-4.8488485 l 0,0 c -1.39502,1.2691064 -0.66988,0.6462097 -2.17849,1.8651165 -8.91502,5.15241 -12.74215,8.513384 -22.02979,9.696189 -3.67493,0.293672 -7.32732,0.324446 -10.87367,-0.853741 -2.32154,-0.814471 -5.20703,-1.750927 -5.35904,-4.633069 1.79172,-5.5575841 10.95708,-8.0598264 16.82615,-8.2365881 2.83935,0.076997 4.9959,0.693554 7.3049,2.400311 2.67162,1.9041511 5.13516,4.2081271 6.36648,7.3198711 0.88691,2.72425 0.94498,4.940409 -0.94337,7.261368 -4.1306,4.16881 -0.79774,0.949641 -12.90195,8.072297 -1.94728,1.145867 -4.19247,1.650497 -6.36175,2.177744 -3.12967,0.669049 -6.31224,1.315078 -9.50586,0.646839 -2.36819,-0.481386 -4.66134,-1.245082 -6.80916,-2.367316 -2.00214,-1.007642 -3.94714,-1.943179 -5.02059,-4.044711 -0.9172,-2.101939 -0.90549,-3.770715 -0.25358,-5.966351 0.60718,-1.914793 1.51345,-3.687508 2.51371,-5.424484 0,0 11.98412,-5.421993 11.98412,-5.421993 z"
       inkscape:connector-curvature="0"
       transform="translate(0,53.149618)" />
    <path
       style="fill:#550000;stroke:#0000ff"
       id="path3456"
       d="m 475.40975,13.711835 c 0.87262,-1.077704 -3.8043,1.901403 -2.53646,1.182753 18.24257,-10.340443 11.88872,-7.9573438 8.94126,-4.588405 -1.06918,1.843205 -1.50069,4.251621 -1.0461,6.337414 0.64704,2.139687 2.27854,3.404772 3.91911,4.760444 1.63814,1.266676 3.7313,1.628514 5.69005,2.15257 2.3371,0.506949 4.7601,0.757964 7.12144,0.354163 2.03028,-0.391144 4.00858,-0.933103 5.92137,-1.723799 4.12573,-1.70546 12.71357,-6.91998 -5.42744,3.361693 1.82709,-1.232593 3.94418,-2.971728 4.00105,-5.404027 0.01,-0.416228 -0.11164,-0.825166 -0.16746,-1.237749 -1.06378,-3.155977 -3.71785,-4.990246 -6.48835,-6.54893 -2.16578,-1.073167 -4.25778,-1.762871 -6.67219,-1.443481 -4.25718,2.144327 -1.57353,0.804087 10.10985,-5.6903682 0.16515,-0.0918 -0.33749,0.1780317 -0.47869,0.303582 -0.44754,0.3979336 -0.32307,0.7635879 -0.20724,1.2798026 0.92697,1.1492384 2.59814,1.2249596 3.96223,1.3497711 2.5606,0.1155209 5.13917,0.2482775 7.69195,-0.018738 1.29355,-0.2777933 2.60328,-0.6798974 3.80746,-1.2385225 0.34818,-0.1615221 1.33517,-0.7579036 1.00143,-0.5683211 -10.56264,6.0003153 -13.48472,8.1949603 -9.5956,5.3311623 0.22015,-0.166419 0.43873,-0.334926 0.66044,-0.499255 0.73805,-0.547041 0.72915,-0.47806 1.37568,-1.127599 0.12467,-0.1252519 1.0376,-1.1639387 1.20585,-1.264937 3.91059,-2.3474633 7.8925,-4.5740202 11.83874,-6.8610304 2.01191,-0.2090426 3.92377,0.710516 5.84044,1.1995271 1.95016,0.8076246 4.08185,0.9769018 6.0118,1.8185561 0.13609,0.1655222 0.33651,0.2946547 0.40826,0.4965666 1.81936,5.1193016 -10.44348,7.1593856 -11.69557,7.8708996 -0.21289,0.120975 -0.83556,0.51072 -0.6228,0.38951 10.60094,-6.0395396 13.69275,-8.5849203 9.95253,-5.5668781 -1.31165,1.4989594 -1.40126,3.5124191 -1.29108,5.4047791 0.43342,1.741678 1.24933,3.460627 2.66235,4.606918 1.57432,0.971876 3.33288,1.273111 5.14298,1.463312 3.29381,0.251952 6.60088,0.227602 9.90194,0.21229 1.85101,-0.101934 3.61542,-0.620673 5.22886,-1.530617 0.38011,-0.214372 1.48766,-0.912403 1.10748,-0.698162 -3.33336,1.878432 -6.64548,3.794283 -9.96822,5.691424 1.9133,-1.146552 3.08448,-2.815823 4.03491,-4.773413 0.67508,-1.392212 1.57955,-2.708145 0.94687,-4.261133 -0.86667,-1.450169 -2.48245,-1.619394 -4.01507,-1.791808 -0.26493,0.02221 -1.48103,0.0866 -1.7955,0.240677 -0.16738,0.08201 -0.53566,0.509191 -0.37484,0.414955 29.70977,-17.4091194 7.70695,-9.3576523 11.35091,-6.1085072 1.48276,1.5595106 3.56859,2.476819 5.56808,3.2000042 1.85273,0.580464 3.40658,0.764176 5.29254,0.345835 0.42895,-0.303876 0.96897,-0.363469 1.42321,-0.6080149 0.22297,-0.1200382 0.83777,-0.5673463 0.61728,-0.4428147 -3.54833,2.0040796 -7.05135,4.0878566 -10.60444,6.0835056 -0.15536,0.08726 0.24841,-0.261781 0.40155,-0.352883 3.82945,-2.278075 7.69209,-4.499891 11.53813,-6.7498365 1.52452,1.0630643 2.91077,2.2602295 4.46813,3.2856175 2.54229,1.965959 5.53228,3.075375 8.39475,4.45056 0.33032,0.145852 1.94612,0.887334 2.35745,0.965358 0.35136,0.06665 0.72129,0.0601 1.07286,-0.0054 0.88507,-0.164994 1.60809,-0.687595 2.364,-1.128561 -3.17895,1.792286 -6.3579,3.584572 -9.53685,5.376858 2.98566,-2.230374 5.54612,-4.995289 7.98004,-7.804805 0.70399,-1.018911 2.74971,-3.11522 1.42546,-4.3607911 -1.35216,-0.5443206 -2.87042,-0.4830367 -4.30542,-0.4990036 -1.93226,0.5152388 -3.99833,0.8886177 -5.84464,1.6787997 -4.00939,1.847001 -9.99635,5.430013 9.09399,-5.2899434 0.24611,-0.1382005 -0.46106,0.3267435 -0.67782,0.507537 -0.58876,0.4910815 -0.69576,0.6660517 -1.2062,1.2571375 -1.34908,1.9897752 -2.35624,4.2235659 -3.30364,6.4306009 -0.8825,2.094171 -1.74935,4.193451 -2.58263,6.307391 -0.47449,1.077263 -1.20469,2.225464 -0.59147,3.369022 1.15242,1.027172 2.2898,2.073429 3.38918,3.157177 1.16679,1.003248 2.66613,1.567547 4.13296,1.985704 1.70111,0.400637 3.4563,0.418174 5.19406,0.458012 2.39717,-0.396117 4.75144,-1.108307 6.99726,-2.036019 2.14147,-0.563792 4.11987,-1.55965 6.27534,-2.06777 1.98637,-0.570485 3.89092,-1.000794 5.69307,-2.058664 4.32615,-2.256728 2.76352,-1.45729 -9.33122,5.383882 -0.26518,0.149996 0.51423,-0.327017 0.7668,-0.497392 0.95429,-0.643726 1.66953,-1.37212 2.43199,-2.231302 1.68723,-1.926481 3.00877,-4.132259 4.37194,-6.290732 1.23746,-2.087727 2.48484,-4.1778 3.50711,-6.381197 0.66621,-1.670686 1.57716,-3.1726044 2.70975,-4.5602667 4.54932,-3.9867721 10.35514,-9.2717073 16.56472,-7.93832963 2.39234,0.61217221 4.36742,1.88689473 6.1157,3.59454933 1.40575,1.488224 1.93611,3.3586236 2.21201,5.3304694 0.18195,1.8594046 0.26354,3.7212116 -0.13679,5.5525756 -0.6477,2.429977 -2.12217,4.505483 -3.64737,6.462777 -1.26107,1.524016 -2.8284,2.671668 -4.44606,3.77319 -1.46345,0.703355 -2.36748,1.864055 -3.20157,3.207127 -7.24756,4.650905 -13.3346,11.50661 -12.99527,2.303166 0.27641,-2.85267 1.52957,-5.42635 2.91468,-7.887138 3.19433,-4.707764 7.79277,-5.716788 13.60334,-8.783974 0.5973,-0.31529 2.97196,-0.165615 3.70333,-0.164829 1.96969,0.262441 3.92871,0.842701 5.6938,1.760257 1.45179,0.591094 2.82573,1.308236 4.20261,2.050475 1.73312,0.925289 3.17566,0.14207 4.68769,-0.840606 -18.67898,12.210428 -8.19582,4.171126 -3.9375,1.157611 0.96178,-0.787174 3.022,-1.997819 2.49606,-3.520257 -0.91076,-1.143319 -2.72296,-1.448926 -4.08251,-1.828644 -0.31762,-0.01707 -0.63561,-0.07397 -0.95288,-0.05121 -0.74931,0.05376 -0.9618,0.23758 -1.61634,0.561113 3.49486,-1.949904 6.94948,-3.973749 10.48459,-5.8497144 0.30329,-0.160949 -0.5416,0.4293701 -0.76375,0.6911761 -0.2526,0.2976863 -0.43311,0.6496951 -0.64966,0.9745427 -1.33789,2.3553896 -1.86033,5.0220236 -2.45168,7.6333306 -0.50895,2.501171 -0.81335,5.038668 -0.5831,7.585194 0.32775,1.453318 -0.0626,3.404046 1.13834,4.491321 1.41597,0.803795 2.95895,1.038802 4.55433,1.212453 2.24562,0.335233 3.98738,0.07205 6.07907,-0.752056 2.39898,-0.850468 4.87518,-1.662886 7.07442,-2.963694 -3.45403,1.969685 -6.8921,3.967601 -10.36208,5.909055 -0.17791,0.09954 0.33498,-0.235889 0.47947,-0.379719 0.39275,-0.390967 0.50184,-0.688505 0.57545,-1.274855 0.13214,-1.052515 -0.0214,-1.662658 -0.15616,-2.731518 -0.62493,-3.517997 -1.47738,-6.985421 -2.0663,-10.511015 0,0 11.36048,-6.001323 11.36048,-6.001323 l 0,0 c 0.46179,3.544671 1.25843,7.013023 2.05588,10.4941 0.20691,1.031448 1.10452,4.82034 -0.14376,5.599939 -3.89936,2.435301 -7.91311,4.682454 -11.86967,7.023681 -2.33351,1.058607 -4.72644,1.98123 -7.1621,2.777984 -2.14767,0.617444 -4.2752,0.679599 -6.48408,0.310965 -1.83583,-0.289713 -3.6874,-0.675219 -5.13756,-1.92178 -1.25018,-1.537122 -1.24845,-3.376143 -1.44452,-5.281184 -0.2675,-2.682436 0.0158,-5.324304 0.48703,-7.976786 0.53319,-2.69506 1.08011,-5.438963 2.25143,-7.939974 2.47684,-5.8450995 9.78458,-10.226396 16.03721,-8.968162 1.82518,0.5644187 3.72137,1.0495282 4.79587,2.7783026 0.90404,2.1562565 -0.16238,3.8263624 -1.91875,5.1719074 -5.97606,4.142834 -11.10799,8.950811 -18.17277,11.684455 -1.95199,0.833957 -3.67175,1.032939 -5.55128,-0.120007 -1.34589,-0.750787 -2.76758,-1.326325 -4.15311,-1.997674 -1.67233,-0.723951 -3.4068,-1.321401 -5.25251,-1.318446 -0.80557,0.04292 -1.54504,0.04688 -2.33677,0.231715 -0.37022,0.08643 -1.40525,0.558681 -1.08348,0.356202 18.59987,-11.7042458 11.45815,-7.668616 8.37318,-4.528708 -1.37123,2.288063 -2.75911,4.596847 -3.10962,7.300533 -0.47185,6.719973 3.86724,-0.08667 -10.64474,8.673753 1.14168,-1.096707 1.47787,-2.918241 3.04483,-3.631832 1.73072,-0.946997 3.30889,-2.085014 4.74574,-3.445604 1.5599,-1.701224 3.05652,-3.714738 3.76868,-5.920713 0.61974,-1.641405 0.46862,-3.348519 0.36042,-5.077044 -0.17275,-1.691038 -0.50225,-3.309394 -1.73583,-4.574107 -1.61105,-1.5079582 -3.41005,-2.6223725 -5.64904,-2.9020655 -0.94981,-0.013699 -0.97243,-0.089033 -1.88197,0.1907593 -0.28217,0.0868 -1.07547,0.4809677 -0.82209,0.3294635 18.03167,-10.7818889 12.65314,-7.40981009 8.76775,-5.1185053 -1.28569,1.180986 -2.17612,2.6062444 -2.93403,4.1731997 -0.94269,2.3003069 -2.28392,4.3949873 -3.47719,6.5696193 -1.33293,2.208859 -2.7046,4.424433 -4.28907,6.459005 -0.49301,0.622516 -0.94877,1.27656 -1.48016,1.866649 -0.58028,0.64437 -0.78239,0.768115 -1.51274,1.19573 -11.7459,6.877163 -7.89535,4.877128 -12.91525,7.456812 -1.90093,0.843943 -3.92333,1.262163 -5.90305,1.882589 -2.056,0.646794 -4.0677,1.43557 -6.1182,2.100192 -2.37552,0.816321 -4.8286,1.640216 -7.36178,1.681508 -1.8338,-0.05385 -3.6812,-0.172437 -5.43956,-0.741639 -1.61651,-0.580144 -3.23035,-1.245783 -4.46002,-2.488448 -1.20416,-1.158335 -2.49655,-2.231006 -3.6362,-3.448833 -0.87252,-1.522772 -0.73717,-2.9615 0.10748,-4.496884 1.05504,-2.022929 1.68594,-4.265148 2.70913,-6.311353 0.8998,-2.29787 2.01853,-4.480804 3.04381,-6.721588 3.60791,-4.8525731 9.34166,-7.6519537 15.04756,-9.5998753 2.0137,-0.553729 4.03242,-1.2810997 6.13867,-1.3047444 1.75557,0.081074 3.58854,0.1561991 4.96655,1.3882779 1.66111,2.2322673 0.65801,4.0574283 -0.83613,6.0950689 -2.41851,2.9053529 -5.11037,5.5951679 -7.87765,8.1660619 -4.15378,2.425163 -8.26379,4.926906 -12.46134,7.27549 -2.21645,1.240132 -4.42979,0.336921 -6.4656,-0.739713 -2.90102,-1.390899 -5.83181,-2.704911 -8.46414,-4.588651 -0.3297,-0.203128 -3.66249,-2.430091 -3.89395,-2.283971 -0.0834,0.05264 -0.0323,0.194547 -0.0485,0.29182 3.64025,-2.143984 7.26382,-4.316536 10.92075,-6.431953 0.16719,-0.09672 -0.2795,0.271319 -0.44448,0.371754 -3.55869,2.166353 -8.88276,6.727418 -14.02608,7.713608 -1.91732,0.140101 -3.8131,-0.279126 -5.60416,-0.955454 -2.14119,-0.918153 -4.29327,-1.97419 -5.97495,-3.620003 -4.6549,-5.3652206 7.41524,-9.5627265 12.60991,-8.8258086 1.99531,0.3528697 3.75692,1.0114623 4.81902,2.8626568 0.80054,1.8441352 0.62486,3.5678998 -0.52737,5.2455858 -0.86168,2.123686 -1.89958,4.126716 -3.83561,5.473259 -5.86022,3.45779 -11.6508,8.629061 -18.79683,8.806516 -3.35754,-0.03388 -6.72074,-0.04296 -10.07104,-0.28175 -2.03077,-0.284802 -4.04049,-0.763151 -5.67999,-2.070156 -1.51669,-1.51559 -2.46761,-3.444384 -3.08512,-5.487518 -0.22742,-2.163467 -0.12753,-4.32974 0.76662,-6.351497 3.1333,-4.4017696 0.37032,-0.717807 12.28854,-7.6698554 0.22695,-0.1323869 0.94593,-0.4551017 0.7197,-0.3214818 -3.55022,2.0968626 -7.32283,3.8420597 -10.69575,6.2136212 -0.29502,0.207434 0.501,0.518906 0.7515,0.778359 0.017,0.0075 0.0341,0.01499 0.0511,0.02249 -1.8557,-0.776755 -3.925,-0.998436 -5.80581,-1.724391 -1.74399,-0.4688082 -3.63309,-1.2893938 -5.37184,-0.39898 3.49119,-2.0661545 6.98239,-4.1323085 10.47359,-6.1984626 -0.22305,0.1634968 -0.46091,0.3084926 -0.66913,0.4904902 -0.70395,0.6152839 -1.11941,1.4500193 -1.85584,2.0333546 -0.21719,0.172038 -0.47034,0.2930077 -0.70551,0.4395115 -5.04843,4.0755073 -11.11024,8.0013793 -17.68975,8.9669843 -2.64296,0.134379 -5.2991,0.07896 -7.93737,-0.125963 -1.91981,-0.299939 -3.7847,-0.824588 -4.85231,-2.594473 -0.14799,-0.453901 -0.37822,-1.071451 -0.40855,-1.549815 -0.018,-0.284037 0.0376,-1.329519 0.39163,-1.5450905 11.10284,-6.7604784 7.37425,-6.3234255 12.61756,-6.7852072 2.4677,0.074514 4.7761,0.9952883 6.92253,2.1745037 3.0388,1.8238492 5.75229,4.080377 7.08965,7.473532 0.12161,0.525896 0.31792,1.039958 0.36482,1.577689 0.23605,2.706091 -1.6035,5.025386 -3.66297,6.503838 -7.40016,4.312438 -14.1699,9.31363 -22.71808,10.665704 -2.52203,0.165217 -5.07955,0.0068 -7.52378,-0.68202 -2.10368,-0.611748 -4.27874,-1.126361 -5.96241,-2.625391 -1.84716,-1.534155 -3.56661,-3.10297 -4.32616,-5.474188 -0.11878,-0.434238 -0.30493,-0.85547 -0.35636,-1.302715 -0.20147,-1.752067 0.35307,-4.32716 0.85662,-6.01561 3.22537,-5.5114627 10.24261,-7.2895082 15.8141,-9.9957149 0,0 -10.27171,8.2163949 -10.27171,8.2163949 z"
       inkscape:connector-curvature="0"
       transform="translate(0,53.149618)" />
    <path
       style="fill:#ff0000;stroke:#0000ff"
       id="path3458"
       d="m 367.96608,2.4655647 c 1.98326,-0.6514084 4.04262,-0.9776283 6.11314,-1.184307 1.91066,-0.2585483 3.70872,-0.154096 5.51956,0.4971783 2.25602,0.4998949 4.06203,1.6838971 5.59588,3.388093 1.55807,2.287219 2.70417,4.7623351 3.47864,7.412257 0.49021,2.291328 0.72065,4.642782 0.58722,6.982248 -1.54881,6.934264 -8.86471,8.265626 -14.79173,11.594391 -2.90661,0.903379 -5.94303,1.203509 -8.96426,1.42234 -2.18125,0.139056 -4.36751,0.14647 -6.55224,0.14694 -1.78448,-0.02532 -3.46412,0.674831 -5.2565,0.534372 -2.85198,-1.567216 -1.45272,-4.954945 -0.54444,-7.323891 1.27632,-2.609559 2.53966,-5.37448 4.60148,-7.472203 8.29778,-4.532099 10.64138,-10.2689557 14.29264,-3.823423 0,0 -11.28864,6.521732 -11.28864,6.521732 l 0,0 c -0.27689,-0.461937 -0.4515,-0.846973 -0.86623,-1.201145 -0.1878,-0.160385 -0.95003,0.06393 -0.73822,-0.06308 3.54946,-2.128559 7.14892,-4.172633 10.72338,-6.25895 -2.57243,1.397453 -3.76412,4.499773 -5.11504,6.937654 -0.39117,0.898127 -1.63884,3.56278 -1.28034,4.61573 0.13468,0.395572 0.47805,0.344358 0.78789,0.384809 1.74176,-0.166757 3.45668,-0.631753 5.22103,-0.506441 2.13022,0.0024 4.26242,-0.0021 6.38854,-0.152126 2.97682,-0.246683 5.97468,-0.625477 8.75769,-1.776419 -3.33294,1.982641 -6.67284,3.953645 -9.99883,5.947924 -0.28246,0.169364 0.60458,-0.274537 0.86757,-0.472784 1.05979,-0.79888 1.53068,-2.143606 2.14576,-3.260627 0.24808,-2.193352 0.0352,-4.427346 -0.3517,-6.594747 -0.6263,-2.490249 -1.65026,-4.775422 -3.16978,-6.859632 -1.48353,-1.49467 -3.23677,-2.3185002 -5.28958,-2.7634411 -1.72308,-0.3794459 -3.43481,-0.3502361 -5.1829,-0.094823 -2.05461,0.2822262 -4.10023,0.6944096 -6.00833,1.5363199 0,0 10.31834,-8.1139463 10.31834,-8.1139463 z"
       inkscape:connector-curvature="0"
       transform="translate(0,53.149618)" />
    <path
       style="fill:#ff0000;stroke:#0000ff"
       id="path3460"
       d="m 405.43446,10.168782 c -4.0683,2.580474 0.68235,-0.4454591 9.65457,-5.5211105 0.33538,-0.1897284 -0.64452,0.4227856 -0.95911,0.6453073 -1.01118,0.7152679 -1.96163,1.5115121 -2.92835,2.2844827 -2.04269,1.6791248 -4.04623,3.4046215 -6.08542,5.0881635 -1.43353,1.094543 -2.72133,2.259171 -3.37899,3.968828 -0.28294,1.839001 0.83562,3.096308 2.13817,4.196635 1.45516,1.156745 3.11803,2.132444 4.85168,2.815575 0.17442,0.09507 0.34884,0.190143 0.52327,0.285214 0,0 -11.01466,7.166296 -11.01466,7.166296 l 0,0 c -0.12713,-0.07563 -0.25425,-0.151262 -0.38137,-0.226893 -1.77435,-0.872957 -3.49979,-1.895962 -5.01427,-3.172643 -1.6253,-1.453628 -2.85417,-3.176224 -2.85215,-5.447655 0.33286,-2.015034 1.40709,-3.587025 3.12188,-4.721486 1.98676,-1.75629 4.15688,-3.308984 6.06818,-5.157159 1.28419,-0.939276 2.43062,-2.184951 3.79605,-3.0018518 3.97244,-2.3766088 7.98171,-4.6911726 11.98146,-7.0215257 0.24455,-0.1424769 0.50051,-0.2643815 0.75076,-0.3965722 0,0 -10.2717,8.2163947 -10.2717,8.2163947 z"
       inkscape:connector-curvature="0"
       transform="translate(0,53.149618)" />
    <path
       style="fill:#ff0000;stroke:#0000ff"
       id="path3462"
       d="m 437.19266,7.4602682 c -2.25669,0.6133087 -4.39437,1.6142134 -6.63186,2.3189308 -1.95945,1.142473 -4.08146,1.941469 -6.08167,2.989684 19.94212,-11.4014683 6.92656,-3.9756643 -1.76275,1.062637 -3.41692,1.981222 13.67985,-7.9037177 10.26906,-5.911979 -3.9797,2.323948 -7.96342,4.641548 -11.97579,6.908623 -1.15107,0.465674 -0.61498,0.189917 -1.61563,0.812766 22.58985,-12.1113193 11.11042,-8.0679457 8.98437,-4.380057 -0.25902,0.449295 -0.4563,1.021961 -0.64036,1.498837 -0.69318,1.645243 -0.90048,3.423991 -1.30559,5.148541 -0.42999,1.441864 -0.3421,2.82578 0.30125,4.178241 0.80604,1.427835 2.32648,1.987005 3.66329,2.767383 1.33211,0.57941 2.56722,1.323829 3.98777,1.672983 1.37874,0.685278 2.89179,1.026085 4.37338,1.416454 1.26355,0.266534 0.62892,0.148225 1.90388,0.35491 0,0 -10.66113,7.455759 -10.66113,7.455759 l 0,0 c -1.31637,-0.265823 -0.66054,-0.121148 -1.9675,-0.434077 -1.51141,-0.40007 -3.01965,-0.781392 -4.45383,-1.418105 -1.43405,-0.508167 -2.77548,-1.243249 -4.12787,-1.933669 -1.58322,-0.885657 -3.16286,-1.801658 -4.09382,-3.431231 -0.75829,-1.581139 -1.14894,-3.251548 -0.67084,-4.986161 0.42702,-1.766353 0.65655,-3.568042 1.21917,-5.299934 0.31019,-0.808983 0.49926,-1.673837 0.89895,-2.445729 2.25193,-4.348994 12.56493,-6.6515528 12.74498,-8.3535617 0.53306,-0.2565063 2.09515,-1.0979521 1.5844,-0.7994907 -3.41958,1.9982602 -13.69375,7.9664864 -10.27918,5.9596744 39.54309,-23.240275 -25.93404,15.205629 13.77271,-7.9366113 2.07338,-0.9131298 4.02162,-2.0835745 6.15956,-2.8410454 2.2536,-0.794253 4.47654,-1.67524965 6.7234,-2.48771819 0,0 -10.31835,8.11394609 -10.31835,8.11394609 z"
       inkscape:connector-curvature="0"
       transform="translate(0,53.149618)" />
    <path
       style="fill:#ff0000;stroke:#0000ff"
       id="path3464"
       d="m 479.51941,1.9908656 c -1.44251,1.3064714 -2.95039,2.5272463 -4.16553,4.0553007 -1.0787,1.4829836 -1.72278,3.2249197 -2.45829,4.8922147 -0.68767,1.694023 -1.33783,3.390827 -1.71817,5.181742 -0.30925,1.558013 -0.3944,3.089047 0.0664,4.615697 0.59791,1.453929 1.77234,2.368502 3.04272,3.196299 1.49841,0.90299 3.06164,1.48964 4.78023,1.790607 1.52309,0.531456 3.08358,0.892626 4.62715,1.35222 0.78859,0.250507 1.52464,0.353425 2.34069,0.272981 0,0 -10.60646,7.646185 -10.60646,7.646185 l 0,0 c -0.84821,-0.132119 -1.68906,-0.291545 -2.50881,-0.554305 -1.51517,-0.444109 -3.05475,-0.799812 -4.55944,-1.281045 -1.80271,-0.459129 -3.49023,-1.19108 -5.06767,-2.184511 -1.48834,-1.006217 -2.71934,-2.289173 -3.49472,-3.932266 -0.61745,-1.709089 -0.64086,-3.4307 -0.33992,-5.219635 0.30684,-1.892265 0.90291,-3.666062 1.60963,-5.442852 0.71349,-1.751403 1.46566,-3.498907 2.32719,-5.180141 1.13462,-1.6001397 2.42277,-3.0134314 4.0052,-4.1882957 0,0 12.11982,-5.0201957 12.11982,-5.0201957 z"
       inkscape:connector-curvature="0"
       transform="translate(0,53.149618)" />
    <path
       style="fill:#ff0000;stroke:#0000ff"
       id="path3466"
       d="m 519.66066,0.67407401 c 1.55945,0.96149279 2.66572,2.15972449 3.61176,3.71503279 0.97765,1.6796046 1.32275,3.5634623 1.47829,5.4724677 -0.0327,2.1427795 -0.28951,4.2927805 -0.89028,6.3509035 -0.62097,2.201953 -1.73927,4.200437 -2.81181,6.204414 -0.93593,1.97003 -2.36852,3.590233 -3.91011,5.102377 -4.75949,4.50513 -10.70764,7.656728 -16.66083,10.314711 -2.06168,0.749755 -3.68459,1.758403 -5.93058,1.276681 -1.82186,-0.858674 -2.30401,-2.604823 -2.27247,-4.47409 0.0981,-1.703617 0.26137,-3.324186 1.51182,-4.570774 3.58534,-1.979214 9.05217,-7.569746 14.37806,-6.653905 0,0 -10.63003,7.623216 -10.63003,7.623216 l 0,0 c -4.67405,0.355542 -10.81135,5.639708 8.462,-5.699899 -1.86978,0.589545 -1.8902,1.644524 -2.05557,3.440891 -0.1231,1.160313 -0.2098,2.537209 1.24748,2.765893 1.92763,-0.08874 3.66561,-1.081584 5.4234,-1.792916 4.5775,-2.396059 -0.0489,0.0074 -9.05251,5.297873 -0.32364,0.190175 0.68742,-0.307454 1.00644,-0.505287 0.61869,-0.383662 1.18764,-0.844852 1.74587,-1.312136 0.28886,-0.241797 0.551,-0.513823 0.82651,-0.770735 1.5239,-1.420704 3.08081,-2.847228 4.06901,-4.711097 1.01424,-1.979169 2.27747,-3.855952 2.91474,-6.005235 0.669,-1.901397 0.91139,-3.877706 1.08648,-5.882256 -0.13568,-1.701073 -0.32898,-3.411538 -1.21088,-4.914444 -0.85081,-1.3455951 -1.82481,-2.3920319 -3.32518,-3.0417173 0,0 10.98839,-7.22996869 10.98839,-7.22996869 z"
       inkscape:connector-curvature="0"
       transform="translate(0,53.149618)" />
    <path
       style="fill:#ff0000;stroke:#0000ff"
       id="path3468"
       d="m 526.68174,22.882988 c -0.0196,1.937153 1.09403,3.566929 2.36053,4.936365 1.11549,1.385787 2.60595,2.326595 4.26271,2.927816 1.3701,0.845768 2.87726,1.15207 4.45447,1.295164 2.09884,0.138363 4.20374,0.128554 6.30602,0.121935 2.0623,0.05949 4.07845,-0.0095 6.11191,-0.338171 1.85226,-0.471076 3.86233,-0.706343 5.63706,-1.433784 4.01524,-1.787711 10.27238,-5.549865 -9.32637,5.430547 -0.17132,0.09598 0.31304,-0.241911 0.44011,-0.39163 0.31191,-0.367483 0.44394,-0.784918 0.63047,-1.222258 0.10403,-0.513723 1.34014,-2.793274 1.05538,-3.091656 -1.21271,-0.224712 -2.25525,-0.724658 -3.52707,-0.654333 0.86431,-1.043877 -3.74028,1.900192 -2.4875,1.192189 3.51084,-2.005715 7.02167,-4.01143 10.53251,-6.017145 -0.28268,-0.03961 -0.2509,0.03013 -0.0954,-0.209184 0.14047,-0.07767 0.26959,-0.180928 0.42142,-0.233023 0.57957,-0.198859 1.19357,-0.284689 1.77482,-0.478584 1.34541,-0.448804 2.55411,-1.04808 3.79392,-1.729935 -20.80855,10.706005 -9.46982,6.654464 -6.9179,3.33008 0.46086,-0.600366 0.38606,-0.573096 0.42091,-1.185662 -0.41825,-1.441478 -1.59148,-2.428031 -3.07067,-2.611326 -4.64118,0.535785 0.96956,-0.07048 11.03954,-6.039389 0.1275,-0.07557 -0.66038,-0.853837 -0.28137,-0.672979 0.26826,0.128013 0.43762,0.406524 0.68627,0.56939 1.19539,0.936164 2.71869,1.317287 4.14062,1.788761 1.38378,0.734995 2.92862,1.002396 4.39221,1.509508 0,0 -10.77001,7.323928 -10.77001,7.323928 l 0,0 c -1.49595,-0.442674 -2.97495,-0.918514 -4.41557,-1.522209 -1.54702,-0.544098 -3.12934,-1.024966 -4.43979,-2.05609 -5.25737,-4.070047 2.62938,-9.912688 10.47727,-8.284204 1.76002,0.828198 3.17983,2.026451 3.81414,3.929399 0.1973,1.011433 0.3816,1.142319 -0.0643,2.138331 -2.47563,5.529544 -15.11952,3.762282 -15.06086,9.831879 -1.60825,0.753284 -4.37588,2.13564 -6.21362,1.735606 -0.30549,-0.0665 -0.56985,-0.25743 -0.85477,-0.386145 -0.25818,-0.307801 -0.59989,-0.561606 -0.77452,-0.923404 -0.13582,-0.281383 -0.37772,-0.753122 -0.11991,-0.929639 3.75698,-2.572353 7.79026,-4.716577 11.7215,-7.013808 0.88992,-0.520029 1.93522,-0.68062 2.94642,-0.664428 1.512,0.226898 3.16723,0.568414 4.3097,1.644585 1.01212,1.753663 -0.0485,2.541983 -0.56818,4.226601 -0.16701,0.438082 -0.39262,1.911529 -0.79792,2.171402 -5.18358,3.32369 -8.18518,5.960685 -13.12704,7.486795 -1.89902,0.443554 -3.78081,0.990293 -5.72145,1.221265 -2.06632,0.246136 -4.14016,0.207869 -6.21835,0.189465 -2.1453,-0.01371 -4.29789,0.0057 -6.4338,-0.222011 -1.65751,-0.249164 -3.19529,-0.767186 -4.66588,-1.583212 -1.7553,-0.819914 -3.33479,-1.894685 -4.52426,-3.452892 -1.42228,-1.654205 -2.63458,-3.484666 -2.95938,-5.689421 0,0 11.70597,-5.964489 11.70597,-5.964489 z"
       inkscape:connector-curvature="0"
       transform="translate(0,53.149618)" />
    <path
       style="fill:#ff0000;stroke:#0000ff"
       id="path3470"
       d="m 610.94321,-0.62301536 c 1.17546,1.81491296 1.75566,3.84141556 2.12085,5.94777476 0.14148,2.1134305 0.008,4.2709956 -0.58219,6.3098306 -0.58836,1.651183 -1.41992,3.139753 -2.48705,4.521704 -1.34689,1.453622 -2.54889,3.032651 -3.86619,4.51053 -4.32775,4.747068 -10.12575,8.701574 -16.53772,9.842581 -3.27043,0.477798 -6.55225,0.379377 -9.82997,0.09442 -3.09741,-0.479326 -5.28888,-1.08354 -5.31816,-4.613538 0.32395,-2.095479 1.56418,-3.865793 2.56599,-5.689404 3.43084,-5.020587 9.62232,-8.191914 15.62766,-8.526918 1.34617,-0.04215 0.67355,-0.02686 2.01785,-0.04593 0,0 -10.50041,7.67614 -10.50041,7.67614 l 0,0 c -1.31297,0.05884 -0.65771,0.01619 -1.96579,0.127848 -0.74725,0.115652 -1.09214,0.127237 -1.79503,0.393868 -0.2347,0.08903 -0.8919,0.459785 -0.67625,0.331323 20.15647,-12.0069214 12.40085,-8.013394 9.20291,-5.221298 -1.0945,1.599772 -2.06782,3.377293 -2.80274,5.163641 -0.77364,2.608831 2.21066,2.660742 4.05178,2.963613 3.23519,0.214724 6.50512,0.212244 9.68811,-0.492374 5.01523,-1.559605 1.0992,-0.445757 -8.8001,5.519647 -0.29924,0.180327 0.65505,-0.252129 0.95622,-0.429221 0.90438,-0.531786 0.7127,-0.603085 1.40297,-1.371416 0.22174,-0.246808 0.47044,-0.467984 0.70566,-0.701977 1.38448,-1.411206 2.56304,-2.985399 3.86105,-4.477024 1.2189,-1.161479 2.03502,-2.544667 2.67107,-4.098608 0.9152,-1.739489 0.84773,-3.788432 0.95138,-5.712505 -0.29121,-1.8969324 -0.73628,-3.7822405 -1.96009,-5.3178016 0,0 11.29819,-6.70490476 11.29819,-6.70490476 z"
       inkscape:connector-curvature="0"
       transform="translate(0,53.149618)" />
    <path
       style="fill:#ff0000;stroke:#0000ff"
       id="path3472"
       d="m 646.17253,-0.8789562 c 2.00667,-0.4158958 3.97878,-0.9649306 6.018,-1.2615769 1.97518,-0.2610949 3.9686,-0.26046 5.95662,-0.2686401 2.05258,-0.045918 4.05806,0.4778791 6.01567,1.0354694 2.07629,0.67784353 3.48329,2.01482043 4.39531,3.9598981 0.81081,1.907488 0.44389,3.68538 -0.45068,5.4702065 -0.66512,1.3528268 -1.30974,2.7195602 -1.9048,4.1055282 -0.63974,1.387579 -1.77903,2.41485 -2.66175,3.645308 -0.82201,1.610556 -2.16888,2.761818 -3.43104,4.002762 -1.0865,1.33002 -0.25528,1.17115 0.76549,1.756962 0.64285,0.549056 0.31284,0.468335 0.89606,0.485662 0,0 -10.94478,7.309405 -10.94478,7.309405 l 0,0 c -0.63503,-0.436468 -0.32395,-0.222486 -0.93326,-0.641918 -1.53046,-0.833355 -2.55693,-2.015472 -1.81098,-3.8277 1.05066,-1.405793 2.68515,-2.226568 3.51181,-3.82145 0.38682,-0.69761 0.81473,-1.407339 1.31954,-2.028946 0.15259,-0.187901 0.33671,-0.347837 0.50506,-0.521755 0.17955,-0.124266 0.39697,-0.206642 0.53864,-0.372799 0.14826,-0.173881 0.20224,-0.409823 0.30337,-0.614735 0.82382,-1.269797 1.24581,-2.788724 1.94059,-4.133305 0.83794,-1.447509 1.69131,-2.691739 0.99405,-4.401268 -0.72016,-1.666065 -2.00843,-2.5599857 -3.76616,-3.0078007 -1.886,-0.5062749 -3.82364,-0.8427798 -5.78465,-0.7500455 -1.95221,0.038086 -3.91096,0.1033621 -5.84059,0.4270054 -2.05495,0.3780041 -4.05756,0.9622822 -6.10348,1.3825201 0,0 10.47196,-7.9287875 10.47196,-7.9287875 z"
       inkscape:connector-curvature="0"
       transform="translate(0,53.149618)" />
    <path
       style="fill:#ff0000;stroke:#0000ff"
       id="path3474"
       d="m 679.98379,-0.21168919 c 1.67656,1.12669333 0.71001,3.14758689 1.15648,4.78096399 0.85973,1.6732369 1.85667,3.2739612 2.70002,4.962697 0.95429,2.0827172 1.20434,4.3719912 1.1633,6.6368772 -0.30402,2.802424 -1.16564,5.500606 -1.93305,8.201807 -0.61899,2.449787 -2.24836,4.33853 -3.92556,6.143917 -4.00056,4.334029 -9.61518,6.20787 -14.5981,9.407812 -3.37993,2.170532 6.96104,-4.010547 10.44156,-6.015821 -32.28943,18.470918 -1.25313,0.721591 -1.53191,0.863904 -7.69727,3.929444 -9.00551,6.652441 -15.36472,7.410721 -2.48062,0.357683 -4.79815,0.333717 -7.10635,-0.684605 -0.9953,-0.520103 -1.58341,-1.318576 -2.16894,-2.234429 0,0 11.26843,-6.571323 11.26843,-6.571323 l 0,0 c 0.44371,0.700473 0.8814,1.239361 1.67937,1.569431 2.18528,0.718211 4.43502,0.496324 6.68023,0.141885 0.88053,-0.181828 1.36912,-0.249694 2.20815,-0.546219 0.32968,-0.116516 1.26804,-0.583964 0.96777,-0.404768 -3.42181,2.042123 -13.85172,7.883048 -10.34067,5.998481 2.67361,-1.435074 26.98773,-15.619165 1.5469,-0.806474 3.95001,-2.307757 7.88721,-4.637576 11.85003,-6.92327 3.46003,-1.995693 -6.88625,4.049512 -10.34163,6.053246 -0.26232,0.152119 0.51908,-0.315541 0.76144,-0.4978 0.71249,-0.535816 1.33664,-1.193931 2.05063,-1.729332 1.5815,-1.750506 3.53953,-3.322295 4.27304,-5.645387 0.76352,-2.609848 1.573,-5.219668 2.03615,-7.900655 0.1159,-2.047548 -0.11125,-4.134208 -0.92453,-6.035559 -0.86339,-1.763342 -1.90559,-3.414227 -2.86822,-5.119098 -0.2881,-0.9039885 -0.42384,-1.6953124 -0.30995,-2.6508164 0.0249,-0.2086576 0.0879,-0.4110124 0.13641,-0.6154679 0.0203,-0.085461 0.12806,-0.1881824 0.07,-0.254051 -0.14169,-0.1606158 -0.37641,-0.2044655 -0.56461,-0.3066982 0,0 10.98838,-7.22996869 10.98838,-7.22996869 z"
       inkscape:connector-curvature="0"
       transform="translate(0,53.149618)" />
    <path
       style="fill:#ff0000;stroke:#0000ff"
       id="path3476"
       d="m 244.83624,6.3963618 c -1.63964,1.2877422 -3.16676,2.7283891 -4.62041,4.2225982 -1.45796,1.484562 -2.29761,3.322586 -2.81949,5.306585 -0.48355,1.613088 0.0413,3.050662 0.52751,4.575662 0.64709,1.841943 0.64512,3.573956 -0.29369,5.294725 -4.3316,4.320783 -10.42507,7.674688 -16.59294,8.516238 -1.63386,0.116157 -3.53409,0.565108 -4.85888,-0.619086 -0.29849,-0.527125 -0.47407,-0.699857 -0.52426,-1.318248 -0.0537,-0.661323 0.30113,-1.410601 0.88909,-1.758944 3.92196,-2.323567 7.90539,-4.541773 11.85808,-6.81266 2.00025,-0.62638 4.01945,-1.010517 6.10683,-1.18466 1.87332,-0.04776 3.76552,-0.318582 5.63373,-0.03903 0.29861,0.04468 2.39357,0.534547 2.69768,0.604786 1.97706,0.536545 3.7807,1.497128 5.68363,2.214022 1.71226,0.526975 3.30721,0.329961 4.82703,-0.585771 -3.46206,1.968452 -6.91051,3.961036 -10.38618,5.905356 -0.16241,0.09085 0.66463,-0.30787 1.34741,-1.102376 0.6187,-0.719937 0.86105,-1.519789 1.10615,-2.415515 0.36563,-2.223599 -0.74085,-4.260818 -1.42012,-6.317029 -0.95709,-1.739619 -1.26942,-3.631791 -1.63079,-5.551688 -0.50265,-2.12853 -0.64829,-4.307409 -1.13912,-6.4364682 -0.35188,-1.3382192 -1.61549,-1.337481 -2.74499,-0.9367234 -0.14777,0.1397642 -0.29555,0.2795283 -0.44333,0.4192924 0,0 10.27133,-8.15286785 10.27133,-8.15286785 l 0,0 c 0.22624,-0.0299609 0.45248,-0.0599217 0.67872,-0.0898826 1.7863,0.11696515 3.19806,0.72453569 3.704,2.5960064 0.46822,2.1477054 0.62328,4.3348619 1.10916,6.4805084 0.40741,1.8535548 0.68834,3.7134398 1.58001,5.4229798 0.69255,2.278061 1.84395,4.476702 1.74333,6.914131 -0.10781,0.633897 -0.22383,1.471499 -0.43271,2.085482 -1.72866,5.080998 -11.95319,7.7062 -13.56833,9.271353 -1.84308,0.549753 -3.66125,0.468436 -5.46118,-0.247664 -1.77434,-0.791331 -3.53106,-1.63136 -5.42538,-2.112092 -2.6929,-0.547626 -5.37684,-0.595044 -8.10588,-0.205754 -2.03765,0.29823 -4.08318,0.731418 -5.95063,1.629699 17.98381,-10.512942 13.39145,-7.255011 9.1961,-5.600606 -0.21516,0.08485 -0.1454,0.13079 -0.0869,0.263605 1.35017,0.35975 2.78774,0.0094 4.14159,-0.149261 0.95876,-0.204285 1.88557,-0.428901 2.78889,-0.821877 0.30469,-0.13255 1.18107,-0.607863 0.8951,-0.438664 -10.13194,5.994851 -14.05342,7.344242 -9.49667,5.712992 1.35755,-1.142348 1.41164,-2.528499 0.86051,-4.152339 -0.54589,-1.720275 -1.2567,-3.374243 -0.80333,-5.218781 0.43704,-2.146441 1.15888,-4.205411 2.5488,-5.937091 1.40061,-1.534267 2.95605,-2.894954 4.40256,-4.376011 0,0 12.20797,-4.8549302 12.20797,-4.8549302 z"
       inkscape:connector-curvature="0"
       transform="translate(0,53.149618)" />
    <path
       style="fill:#ff0000;stroke:#0000ff"
       id="path3478"
       d="m 24.454012,4.2819609 c -0.04118,1.8631412 0.588364,3.5726649 1.550062,5.1390667 0.593887,0.8813264 1.590378,1.0096314 2.458484,1.4749464 2.330362,1.249102 -0.82804,-0.274171 1.501658,0.822048 1.97956,0.746022 3.974605,1.332401 6.073847,1.612274 2.466033,0.244833 4.948924,0.249787 7.424793,0.256596 2.815463,-0.06056 5.594831,0.554674 8.300454,1.277607 2.421651,0.756764 4.909004,1.335725 7.322332,2.115549 2.307756,0.702647 4.62958,1.250213 7.024929,1.551965 3.789796,0.07495 7.485419,-0.991269 11.20957,-1.584644 0.617718,-0.07774 1.235436,-0.155471 1.853154,-0.233206 0,0 -10.228763,7.640204 -10.228763,7.640204 l 0,0 c -0.60627,0.08499 -1.21254,0.169977 -1.818809,0.254966 -3.807698,0.637839 -7.620009,1.684632 -11.510172,1.338578 -2.466728,-0.34201 -4.88977,-0.886135 -7.261867,-1.6512 -2.395245,-0.702909 -4.760238,-1.504973 -7.178305,-2.124982 -2.682355,-0.608929 -5.392088,-1.107657 -8.157924,-1.005319 -2.533727,-0.02322 -5.081193,-0.0024 -7.594142,-0.37418 -2.18297,-0.392479 -4.287614,-1.076908 -6.345931,-1.901075 -1.572219,-0.804536 -3.306028,-1.430874 -4.347694,-2.941296 -1.029525,-1.778423 -1.726138,-3.655113 -1.981646,-5.703409 0,0 11.70597,-5.9644891 11.70597,-5.9644891 z"
       inkscape:connector-curvature="0"
       transform="translate(0,53.149618)" />
    <path
       style="fill:#ff0000;stroke:#0000ff"
       id="path3480"
       d="m 128.26735,21.491794 c 5.26685,0.217808 10.54411,-0.125982 15.80813,-0.333991 5.23317,-0.424982 10.43567,-0.216854 15.63358,0.425474 8.81471,1.737145 17.7311,2.726383 26.67533,3.500477 25.44691,2.456484 51.02004,3.004463 76.56406,3.486748 25.41238,0.261656 50.7497,-1.905375 76.08192,-3.588324 0,0 -7.5511,5.55853 -7.5511,5.55853 l 0,0 c -25.21479,1.475316 -50.43014,3.381429 -75.70627,3.226554 -26.14902,-0.295643 -52.3162,-0.559111 -78.42249,-2.217428 -9.35771,-0.526394 -18.73026,-1.110214 -27.98783,-2.638693 -5.06409,-0.602991 -10.13924,-0.796196 -15.23684,-0.465097 -5.48188,0.21084 -10.95505,0.590533 -16.43922,0.733102 0,0 10.58073,-7.687352 10.58073,-7.687352 z"
       inkscape:connector-curvature="0"
       transform="translate(0,53.149618)" />
    <path
       style="fill:#ff0000;stroke:#0000ff"
       id="path3482"
       d="m 366.44372,25.91188 c 14.26241,0.72411 28.53531,1.233216 42.80842,1.695597 20.5856,0.392526 41.18478,1.181445 61.77695,0.770563 4.47938,-0.08938 8.95611,-0.281702 13.43417,-0.422553 31.35826,-1.497326 62.59918,-4.702383 93.904,-7.000053 22.20353,-1.54309 44.45001,-2.27823 66.69185,-2.991701 0,0 -7.20397,5.263561 -7.20397,5.263561 l 0,0 c -22.12474,0.475209 -44.25045,1.133682 -66.32556,2.77486 -31.58707,2.432592 -63.09724,5.849666 -94.73542,7.564285 -4.51432,0.15805 -9.02712,0.368615 -13.54297,0.474148 -20.72781,0.484398 -41.46493,-0.235841 -62.18974,-0.515015 -15.07113,-0.304685 -30.16305,-0.878474 -45.2225,0.09112 0,0 10.60477,-7.704812 10.60477,-7.704812 z"
       inkscape:connector-curvature="0"
       transform="translate(0,53.149618)" />
    <path
       style="fill:#ffff00;stroke:#0000ff"
       id="path3484"
       d="m 321.36373,12.634162 c 7.68539,0.358623 15.38864,-0.01835 23.0776,-0.155959 13.49046,-0.565321 26.94319,-1.658552 40.40494,-2.6645329 19.62992,-1.3442725 39.04303,-4.6704024 58.50843,-7.3974605 14.3309,-2.09991854 28.76532,-3.19604688 43.22069,-3.927127 0,0 -9.03879,6.6299026 -9.03879,6.6299026 l 0,0 c -14.20057,0.5692142 -28.38614,1.5404729 -42.47206,3.4989175 -19.67781,2.7699003 -39.29148,6.1486613 -59.11286,7.7662383 -13.65849,1.144937 -27.30726,2.396477 -41.00319,3.026238 -8.05757,0.245687 -16.11057,0.598925 -24.16549,0.911135 0,0 10.58073,-7.687352 10.58073,-7.687352 z"
       inkscape:connector-curvature="0"
       transform="translate(0,53.149618)" />
    <path
       style="fill:#ffff00;stroke:#0000ff"
       id="path3486"
       d="m 184.76833,20.58857 c 3.65747,-0.118536 7.32553,-0.379226 10.99251,-0.489825 9.20636,-0.170476 18.41647,0.02957 27.62267,0.145063 21.10453,0.330983 42.21108,0.384937 63.31771,0.365794 10.69103,-0.05468 21.34226,-1.013249 31.9886,-1.873684 0,0 -8.45257,6.23792 -8.45257,6.23792 l 0,0 c -10.5407,0.721057 -21.08584,1.510485 -31.65857,1.537027 -21.44616,-0.0234 -42.89247,0.02516 -64.33633,0.376383 -9.53563,0.142089 -19.07365,0.253584 -28.60369,0.629637 -3.8397,0.200163 -7.66259,0.57125 -11.49913,0.793958 0,0 10.6288,-7.722273 10.6288,-7.722273 z"
       inkscape:connector-curvature="0"
       transform="translate(0,53.149618)" />
    <path
       style="fill:#ffff00;stroke:#0000ff"
       id="path3488"
       d="m 499.26773,10.36805 c 0.34809,1.948934 0.49086,3.883271 0.32516,5.854504 -0.1031,1.973879 -0.82041,3.824966 -1.36628,5.702772 0,0 -11.72876,5.581953 -11.72876,5.581953 l 0,0 c 0.48178,-1.823759 1.21612,-3.599602 1.41944,-5.481502 0.21545,-1.850021 0.33355,-3.649757 -0.23292,-5.464731 0,0 11.58336,-6.192996 11.58336,-6.192996 z"
       inkscape:connector-curvature="0"
       transform="translate(0,53.149618)" />
    <path
       style="fill:#ffff00;stroke:#0000ff"
       id="path3490"
       d="m 524.77202,16.959246 c -1.32464,1.685349 -2.12667,3.701519 -2.75081,5.732832 -0.54933,1.727849 -0.61565,3.431978 -0.33832,5.201135 0.37908,1.471566 1.27674,2.325693 2.64845,2.870755 1.05517,0.273035 0.53198,0.100619 1.56777,0.52268 0,0 -10.84143,7.277986 -10.84143,7.277986 l 0,0 c -1.02872,-0.379968 -0.49049,-0.17646 -1.61371,-0.613104 -1.61432,-0.891442 -2.78388,-2.130918 -3.30806,-3.938192 -0.32848,-1.949813 -0.3949,-3.829518 0.17359,-5.759286 0.56434,-2.118238 1.34077,-4.169749 2.39723,-6.095423 0,0 12.06529,-5.199383 12.06529,-5.199383 z"
       inkscape:connector-curvature="0"
       transform="translate(0,53.149618)" />
    <path
       style="fill:#ffff00;stroke:#0000ff"
       id="path3492"
       d="m 555.73912,15.253994 c -1.65318,1.278236 -3.0394,2.901578 -4.31738,4.547415 -1.28904,1.999352 -2.16729,4.246814 -2.84817,6.518022 -0.37467,1.687053 -1.06534,3.451339 0.53885,4.662256 2.98207,1.873715 6.48967,2.28564 9.91343,2.665122 2.76301,0.334424 5.48969,0.336052 8.2334,-0.09209 0,0 -10.25187,7.631019 -10.25187,7.631019 l 0,0 c -2.77513,0.213071 -5.53921,0.114232 -8.30546,-0.219912 -3.69205,-0.45203 -7.50586,-0.977435 -10.64981,-3.126896 -0.29045,-0.289677 -0.62856,-0.53839 -0.87136,-0.869032 -1.08484,-1.477287 -0.67166,-3.460153 -0.31483,-5.087341 0.64263,-2.390209 1.57531,-4.696657 2.65309,-6.920197 1.16326,-1.758796 2.63202,-3.266297 4.01214,-4.853432 0,0 12.20797,-4.85493 12.20797,-4.85493 z"
       inkscape:connector-curvature="0"
       transform="translate(0,53.149618)" />
    <path
       style="fill:#ffff00;stroke:#0000ff"
       id="path3494"
       d="m 584.08354,19.68281 c -1.66277,1.100205 -2.95326,2.512219 -3.5924,4.408786 -0.29179,2.725185 1.13803,3.383248 3.29321,4.47374 3.55105,1.492704 7.4373,1.641144 11.23112,1.826791 4.12216,-0.212849 8.18329,-0.892854 11.81039,-2.925454 -3.31082,1.869537 -6.578,3.818565 -9.93247,5.608612 -0.3641,0.194293 0.64882,-0.513738 0.93753,-0.808636 1.12526,-1.149392 1.57682,-2.552906 1.94016,-4.074804 0.28134,-1.387649 0.40877,-2.7789 -0.73041,-3.769554 0,0 11.15862,-6.810567 11.15862,-6.810567 l 0,0 c 1.24332,1.437181 1.6112,3.051575 1.2367,4.935519 -1.48707,8.206803 -6.03743,7.881592 -14.64168,12.93675 -3.80572,1.639075 -7.90018,2.270853 -12.03632,2.281908 -3.98775,-0.207143 -8.05166,-0.424784 -11.73257,-2.136302 -2.83328,-1.466181 -4.10311,-2.530687 -4.23727,-5.887893 0.27914,-2.180574 1.37222,-3.835929 3.08742,-5.203966 0,0 12.20797,-4.85493 12.20797,-4.85493 z"
       inkscape:connector-curvature="0"
       transform="translate(0,53.149618)" />
    <path
       style="fill:#ffff00;stroke:#0000ff"
       id="path3496"
       d="m 631.2018,19.339935 c 0.003,2.05672 0.5336,4.017868 1.83579,5.619153 1.54303,1.7733 3.66481,2.542381 5.77557,3.383096 2.18397,1.097467 4.52985,1.604734 6.9376,1.879198 2.18643,0.373119 4.18769,-0.205679 6.1912,-1.038976 5.10646,-2.806883 -6.03287,3.496488 -9.09288,5.16651 -0.40088,0.218785 0.74715,-0.526117 1.10662,-0.807807 1.07564,-0.842882 1.93217,-1.782137 2.77538,-2.849661 1.86617,-2.535878 2.9843,-5.440603 3.80642,-8.452352 0.67731,-2.71297 0.73661,-5.497507 0.0989,-8.212826 0,0 11.34401,-6.1028767 11.34401,-6.1028767 l 0,0 c 0.63675,2.8906547 0.70499,5.8810407 0.1,8.7905497 -0.73116,3.11945 -1.7299,6.15237 -3.50202,8.84937 -3.85505,5.776151 -10.64311,8.919831 -16.85854,11.599632 -2.17353,0.668591 -4.2943,1.009912 -6.55815,0.531101 -2.46793,-0.402058 -4.83765,-1.087758 -7.1137,-2.140258 -2.30554,-0.927868 -4.49911,-2.020936 -6.13984,-3.958948 -1.42054,-1.871455 -2.09802,-3.971601 -2.41224,-6.290416 0,0 11.70597,-5.964489 11.70597,-5.964489 z"
       inkscape:connector-curvature="0"
       transform="translate(0,53.149618)" />
  </g>
</svg>
